<?xml version="1.0" encoding="utf-8"?>
<!-- Generator: Adobe Illustrator 21.1.0, SVG Export Plug-In . SVG Version: 6.00 Build 0)  -->
<svg version="1.1" id="Capa_1" xmlns="http://www.w3.org/2000/svg" xmlns:xlink="http://www.w3.org/1999/xlink" x="0px" y="0px"
	 viewBox="0 0 85 56.7" style="enable-background:new 0 0 85 56.7;" xml:space="preserve">
<style type="text/css">
	.st0{fill:#FFFFFF;}
</style>
<g>
	<path class="st0" d="M8.4,23.6c0.3,0,0.6,0.1,1.1,0.1c0.1,0.1,0.3,0.1,0.6,0.1h0.4c0.2,0,0.4,0.1,0.7,0.2c0.1,0,0.4,0.1,0.8,0.3
		c0.6,0.5,0.8,0.8,0.8,1c0,0.1,0.1,0.3,0.2,0.5c0,0.1,0,0.2,0,0.3v1.4c0,0.2-0.1,0.4-0.2,0.6c-0.1,0.3-0.3,0.6-0.6,0.9
		c-0.4,0.3-0.6,0.5-0.6,0.6v0.1c0,0,0.2,0.2,0.5,0.6c0.3,0.5,0.5,1,0.5,1.4c0.1,0.1,0.1,0.4,0.2,0.8c0.1,0.1,0.1,0.3,0.2,0.7
		c0,0,0.1,0.2,0.2,0.5c0.1,0.3,0.2,0.4,0.3,0.6c0.1,0.1,0.1,0.2,0.1,0.3v0c0,0.1-0.1,0.2-0.4,0.2c-0.1,0-0.2,0-0.4,0
		c-0.3,0-0.5,0-0.7,0h-0.1c-0.6-0.1-0.9-0.2-1-0.3c-0.1-0.1-0.3-0.4-0.6-1c0-0.4-0.1-0.7-0.2-0.9l-0.1-0.8c-0.1-0.2-0.1-0.4-0.2-0.6
		c-0.2-0.4-0.4-0.5-0.7-0.5h0c-0.2,0-0.3,0.1-0.3,0.3v2.8c0,0.1,0.1,0.3,0.2,0.6c0.1,0.2,0.1,0.3,0.1,0.3v0c0,0.1-0.1,0.2-0.4,0.2
		H7.9c-0.1,0-0.3,0-0.4,0c-0.1,0-0.2,0-0.3,0H6.9c-0.3,0-0.4-0.1-0.4-0.3C6.5,34.1,6.6,34,6.6,34c0-0.1,0-0.3,0-0.7v-8.2
		c0-0.6-0.1-1-0.2-1.1l0-0.1v-0.1c0-0.1,0.1-0.2,0.3-0.2h1.1C8,23.6,8.2,23.6,8.4,23.6z M6.9,24.3c0,0.6,0,0.9,0,0.9
		c0,0.1,0,0.2,0,0.3v0.7c0,0.2,0,0.3,0,0.6c0,0,0,0.1,0,0.1c0,0,0,0.1,0,0.1c0,0.3,0,0.5,0,0.7v1.5c0,0.1,0,0.2,0,0.3
		c0,0.1,0,0.2,0,0.3v2c0,0,0,0,0,0.1c0,0,0,0,0,0.1v0.3c0,0.3,0,0.7,0,1.1c0,0.1,0,0.2,0,0.3c0,0.1,0,0.2,0,0.3
		c0,0.2,0.1,0.2,0.2,0.2c0.1,0,0.2-0.1,0.4-0.4v0c-0.1-0.1-0.1-0.2-0.1-0.2c0-0.1,0-0.2,0-0.2v0c-0.1-0.1-0.1-0.2-0.1-0.3
		c0,0,0-0.1,0.1-0.2v0c0,0,0-0.1-0.1-0.3c0,0,0-0.1,0.1-0.2v-0.1c-0.1-0.1-0.1-0.1-0.1-0.2v0c0,0,0-0.1,0.1-0.3v0
		c-0.1-0.1-0.1-0.2-0.1-0.2c0.1-0.1,0.1-0.2,0.1-0.2c-0.1-0.1-0.1-0.2-0.1-0.3c0-0.1,0.1-0.1,0.1-0.1v-0.1c0,0,0-0.1-0.1-0.3
		c0.1-0.1,0.1-0.2,0.1-0.2c0,0,0-0.1-0.1-0.2v0c0,0,0-0.1,0.1-0.2v0c-0.1-0.1-0.1-0.1-0.1-0.2l0.1-0.2c-0.1-0.1-0.1-0.2-0.1-0.2v0
		c0-0.1,0.1-0.2,0.1-0.2v-0.1c-0.1-0.1-0.1-0.2-0.1-0.2c0,0,0-0.1,0.1-0.2c0,0,0-0.1-0.1-0.2c0,0,0,0,0,0c0,0,0.1-0.1,0.1-0.2
		c-0.1-0.1-0.1-0.2-0.1-0.2v0c0.1-0.1,0.1-0.2,0.1-0.2v-0.1c-0.1-0.1-0.1-0.1-0.1-0.2l0.1-0.3c0-0.1-0.1-0.2-0.1-0.2v0
		c0.1-0.1,0.1-0.1,0.1-0.2c-0.1-0.1-0.1-0.2-0.1-0.2v0c0,0,0-0.1,0.1-0.2c-0.1-0.1-0.1-0.2-0.1-0.2v0c0,0,0-0.1,0.1-0.2v0
		c-0.1-0.1-0.1-0.2-0.1-0.2c0,0,0-0.1,0.1-0.3v0c0-0.1-0.1-0.2-0.1-0.2v0c0-0.1,0.1-0.2,0.1-0.2v0c0-0.1-0.1-0.2-0.3-0.4
		c-0.1,0-0.1,0-0.1,0C7,24,6.9,24.1,6.9,24.3z M9,25.8v2.4c0,0.2,0.1,0.4,0.2,0.4h0.1c0.3-0.1,0.6-0.2,0.7-0.3
		c0.3-0.3,0.4-0.6,0.4-0.9c0-0.2,0-0.3,0-0.4c0-0.7-0.2-1.1-0.6-1.2c-0.1-0.1-0.2-0.1-0.4-0.1H9.3C9.1,25.5,9.1,25.6,9,25.8z
		 M10.2,30.4L10.2,30.4c0,0.1,0.1,0.3,0.3,0.6c0,0.1,0.1,0.3,0.2,0.7c0,0.4,0.1,0.8,0.2,1c0,0.4,0.2,0.8,0.5,1.2
		c0.1,0.1,0.2,0.1,0.2,0.1c0.1,0,0.2-0.1,0.2-0.2v0c0-0.1-0.1-0.2-0.3-0.2c0-0.2-0.1-0.4-0.2-0.5V33c0-0.1,0-0.2,0-0.2
		c-0.1-0.1-0.2-0.2-0.2-0.3v0c0.1-0.1,0.1-0.2,0.1-0.2v0c-0.1-0.1-0.2-0.2-0.2-0.2c0,0,0-0.1,0.1-0.3c0,0,0-0.1-0.1-0.2v0
		c0-0.1,0-0.2,0-0.2c-0.1-0.2-0.1-0.3-0.1-0.3c0-0.1,0-0.2,0-0.2c0,0-0.1-0.1-0.2-0.3c0-0.2-0.1-0.3-0.2-0.3c0,0,0,0-0.1,0
		C10.3,30.3,10.2,30.3,10.2,30.4z M10.4,25.4L10.4,25.4c0.2,0.3,0.3,0.5,0.4,0.9c0,0.1,0,0.3,0.1,0.6v0c0,0.5-0.1,0.8-0.2,1
		c0,0.1-0.1,0.2-0.3,0.4v0.1c0,0.1,0.1,0.1,0.1,0.1c0.2,0,0.2-0.1,0.3-0.3c0.1-0.1,0.2-0.2,0.4-0.2l0-0.1c0-0.1,0-0.1,0-0.2
		c0,0,0.1-0.1,0.2-0.3c0-0.2,0-0.3,0.1-0.3c0.1,0,0.1-0.1,0.1-0.2c-0.1-0.2-0.1-0.2-0.1-0.3c0-0.1,0-0.1,0-0.1v0
		c0,0-0.1-0.1-0.2-0.3l0-0.1c0,0,0-0.1,0-0.1c0-0.1-0.1-0.2-0.4-0.3c0,0-0.1-0.1-0.2-0.3c0,0-0.1,0-0.1,0
		C10.4,25.4,10.4,25.4,10.4,25.4z"/>
	<path class="st0" d="M14.4,23.7h5.3c0.2,0,0.3,0.1,0.3,0.4v1.5c0,0.3-0.1,0.4-0.2,0.4h0c0,0-0.2,0-0.4-0.1c0,0-0.1,0-0.3,0h-2
		c-0.2,0-0.3,0.1-0.3,0.3v1.6c0,0.2,0.1,0.3,0.2,0.3l0.2,0h1.3c0.1,0,0.3-0.1,0.6-0.2c0,0,0.1,0,0.1,0c0.1,0,0.2,0.1,0.2,0.4
		c0,0,0,0,0,0c0,0.1,0,0.2,0,0.2v1c0,0.3-0.1,0.4-0.2,0.4H19l-0.4-0.1c0,0-0.2,0-0.5-0.1c-0.2,0-0.4,0-0.5,0c-0.3,0-0.4,0-0.5,0
		c-0.2,0-0.4,0.1-0.4,0.4v2c0,0.2,0.1,0.3,0.2,0.4c0.1,0,0.2,0,0.2,0c0.3,0,0.5,0,0.6,0h0.8c0.5,0,0.8-0.1,1.1-0.2h0
		c0.1,0,0.2,0.1,0.2,0.4v1.4c0,0.3-0.1,0.4-0.3,0.4h-5.2c-0.2,0-0.3-0.1-0.3-0.2c0.2-0.5,0.3-0.8,0.3-0.8c0,0,0-0.1,0-0.2v-8.7
		c0-0.2-0.1-0.4-0.2-0.7c-0.1-0.2-0.1-0.3-0.1-0.3v0C14.1,23.7,14.2,23.7,14.4,23.7z M14.6,24.2L14.6,24.2c0.1,0.3,0.1,0.5,0.1,0.7
		c0,0.1,0,0.2,0,0.3c0,0.1,0,0.2,0,0.3c0,0.1,0,0.2,0,0.3c0,0,0,0.1,0,0.1l0,0.2c0,0.1,0,0.2,0,0.3c0,0.2,0,0.4,0,0.6v0.2
		c0,0,0,0.1,0,0.1c0,0,0,0.1,0,0.1v0c0,0.2,0,0.3,0,0.4c0,0.1,0,0.2,0,0.3c0,0.1,0,0.1,0,0.2c0,0.1,0,0.2,0,0.2c0,0.1,0,0.2,0,0.2
		c0,0.1,0,0.3,0,0.4v0.1c0,0.2,0,0.3,0,0.4c0,0.1,0,0.1,0,0.2c0,0.1,0,0.1,0,0.3c0,0.1,0,0.2,0,0.3c0,0.1,0,0.1,0,0.2
		c0,0.1,0,0.2,0,0.4v0.1c0,0.2,0,0.3,0,0.5c0,0.1,0,0.2,0,0.3l0,0.3c0,0,0,0.1,0,0.1c0,0.3,0,0.5,0,0.7v0.4c0,0.1,0,0.2-0.1,0.5v0
		c0,0.1,0.1,0.2,0.2,0.2c0.1,0,0.2-0.1,0.3-0.3c0,0,0.1,0,0.1-0.1c-0.1-0.1-0.1-0.2-0.1-0.3c0,0,0-0.1,0.1-0.2c0,0,0-0.1-0.1-0.2v0
		c0.1-0.2,0.1-0.3,0.1-0.3l-0.1-0.2v0c0-0.1,0.1-0.2,0.1-0.2c-0.1-0.2-0.1-0.2-0.1-0.3c0.1-0.1,0.1-0.2,0.1-0.2v0
		c-0.1-0.1-0.1-0.2-0.1-0.2v0c0,0,0-0.1,0.1-0.2c-0.1-0.1-0.1-0.2-0.1-0.2v0c0.1-0.2,0.1-0.2,0.1-0.3v0c0,0,0-0.1-0.1-0.2v0
		c0-0.1,0.1-0.2,0.1-0.2v0c0,0,0-0.1-0.1-0.2c0.1-0.1,0.1-0.2,0.1-0.2c-0.1-0.2-0.1-0.3-0.1-0.3c0,0,0-0.1,0.1-0.2v0
		c-0.1-0.1-0.1-0.2-0.1-0.2v0c0,0,0-0.1,0.1-0.2v0c-0.1-0.1-0.1-0.2-0.1-0.2v0c0-0.1,0.1-0.2,0.1-0.2v0c0-0.1-0.1-0.2-0.1-0.2v0
		c0,0,0-0.1,0.1-0.2v0c-0.1-0.1-0.1-0.2-0.1-0.3c0,0,0-0.1,0.1-0.2v-0.1c0,0,0-0.1-0.1-0.3c0,0,0-0.1,0.1-0.2v0
		c-0.1-0.1-0.1-0.2-0.1-0.2v0c0,0,0-0.1,0.1-0.3c0-0.1-0.1-0.1-0.1-0.2v-0.1c0-0.1,0.1-0.2,0.1-0.2c0-0.1-0.1-0.2-0.1-0.2
		c0.1-0.1,0.1-0.2,0.1-0.2c0,0,0-0.1-0.1-0.3v0c0,0,0-0.1,0.1-0.2c0,0,0-0.1-0.1-0.3v0c0,0,0-0.1,0.1-0.2v0c0,0-0.1-0.2-0.3-0.4
		c-0.1,0-0.1,0-0.1,0C14.7,24,14.6,24.1,14.6,24.2z"/>
	<path class="st0" d="M21.1,23.7h2.4c0.2,0,0.2,0.1,0.2,0.2v0c0,0,0,0.2-0.1,0.4c0,0.1,0,0.1,0,0.2v9.2c0,0.2,0.1,0.4,0.2,0.6v0.1
		c0,0.1-0.1,0.2-0.2,0.2h-2.4c-0.2,0-0.3,0-0.3-0.1c0.1-0.3,0.2-0.5,0.2-0.6c0,0,0-0.1,0-0.2v-9c0-0.1-0.1-0.3-0.2-0.7
		c0-0.1,0-0.1,0-0.2C20.8,23.7,20.9,23.7,21.1,23.7z M21.3,24.2L21.3,24.2c0.1,0.3,0.1,0.4,0.1,0.6v7.2c0,0.3,0,0.6,0,0.9
		c0,0,0,0.2,0,0.6v0.2c0,0.1,0,0.2-0.1,0.4v0c0,0.1,0.1,0.1,0.2,0.1h0c0.1,0,0.2-0.1,0.3-0.3c0,0,0,0,0.1-0.1v0c0,0,0-0.1-0.1-0.2
		c0,0,0,0,0,0l0.1-0.2c-0.1-0.1-0.1-0.2-0.1-0.2c0.1-0.2,0.1-0.2,0.1-0.3v0c0,0,0-0.1-0.1-0.2l0-0.2v-0.1c0,0,0-0.1,0-0.2v0
		c0,0,0-0.1,0.1-0.2v0c-0.1-0.1-0.1-0.2-0.1-0.2v0c0.1-0.2,0.1-0.2,0.1-0.3l-0.1-0.2v-0.1c0.1-0.1,0.1-0.2,0.1-0.2v0
		c-0.1-0.1-0.1-0.2-0.1-0.3c0.1-0.1,0.1-0.2,0.1-0.2c0,0,0-0.1-0.1-0.2c0.1-0.1,0.1-0.2,0.1-0.2c-0.1-0.1-0.1-0.2-0.1-0.3
		c0.1-0.1,0.1-0.2,0.1-0.2c-0.1-0.2-0.1-0.2-0.1-0.3c0.1-0.2,0.1-0.2,0.1-0.3c-0.1-0.1-0.1-0.2-0.1-0.2v0c0.1-0.1,0.1-0.2,0.1-0.2v0
		c0-0.1-0.1-0.2-0.1-0.2l0.1-0.2l-0.1-0.3v0c0,0,0-0.1,0.1-0.2c-0.1-0.2-0.1-0.2-0.1-0.2v0c0,0,0-0.1,0.1-0.2
		c-0.1-0.1-0.1-0.2-0.1-0.2v0c0,0,0-0.1,0.1-0.3l-0.1-0.2c0.1-0.1,0.1-0.2,0.1-0.2c0,0,0-0.1-0.1-0.2v0c0.1-0.1,0.1-0.2,0.1-0.2
		c-0.1-0.1-0.1-0.2-0.1-0.2v0c0,0,0-0.1,0.1-0.2c0,0,0-0.1-0.1-0.2v0c0.1-0.2,0.1-0.2,0.1-0.3l-0.2-0.4l-0.1,0h-0.1
		C21.4,24,21.3,24.1,21.3,24.2z"/>
	<path class="st0" d="M25.1,23.7h1.8c0.2,0,0.4,0.1,0.4,0.2v0c-0.1,0.2-0.1,0.5-0.2,0.7c0,0.1,0,0.2,0,0.3v1c0,0.3,0.1,0.6,0.4,0.9
		c0.1,0.2,0.3,0.4,0.4,0.7c0.2,0.2,0.3,0.5,0.5,0.8c0.3,0.4,0.5,0.6,0.5,0.6h0c0.1,0,0.1-0.3,0.2-0.8c0-0.3-0.1-0.5-0.1-0.7v-2.8
		c0-0.2-0.1-0.4-0.2-0.6l0-0.1c0-0.1,0.1-0.2,0.4-0.2h2.1c0.3,0,0.4,0.1,0.4,0.2c0,0-0.1,0.3-0.2,0.7c0,0.3,0,0.5,0,0.7v7.7
		c0,0.7,0,1,0.1,1c0.1,0.3,0.2,0.5,0.2,0.5c0,0.1-0.2,0.2-0.5,0.2h-0.9c-0.3,0-0.6,0-0.9,0c-0.1,0-0.2,0-0.3,0
		c-0.3,0-0.4-0.1-0.4-0.2c0-0.1,0.1-0.2,0.2-0.5c0-0.1,0-0.2,0-0.2V33c0-0.2-0.1-0.5-0.4-0.8c0-0.1-0.2-0.4-0.5-0.9
		c-0.4-0.7-0.7-1-0.7-1.1c-0.1-0.1-0.2-0.1-0.2-0.1c-0.1,0-0.1,0-0.1,0.1c0,0.5,0,1,0,1.3v1.9c0,0.2,0.1,0.5,0.2,0.8
		c0.1,0.2,0.1,0.3,0.1,0.4c0,0.1-0.2,0.2-0.5,0.2h-0.4c-0.3,0-0.7,0-1.2,0c-0.1,0-0.1,0-0.2,0c-0.2,0-0.4-0.1-0.4-0.2v0
		c0-0.2,0.1-0.4,0.2-0.7v-0.2c0-0.2,0-0.4,0-0.6c0,0,0-0.1,0-0.2c0-0.4,0-0.7,0-0.9v-0.2c0-0.2,0-0.4,0-0.6c0-0.1,0-0.2,0-0.4
		c0-0.2,0-0.4,0-0.6c0-0.2,0-0.3,0-0.4c0-0.1,0-0.3,0-0.4c0-0.3,0-0.6,0-0.8c0-0.5,0-0.9,0-1.1c0-0.4,0-0.9,0-1.4V25
		c0-0.6,0-0.9-0.1-0.9c-0.1-0.1-0.1-0.2-0.1-0.3C24.7,23.7,24.8,23.7,25.1,23.7z M25.2,24.2L25.2,24.2c0,0.2,0,0.4,0,0.5v2.5
		c0,0.2,0,0.3,0,0.5c0,0,0,0.2,0,0.6c0,0.4,0,0.5,0,0.5c0,0.2,0,0.4,0,0.5v1.4c0,0.1,0,0.3,0,0.5c0,0.1,0,0.4,0,0.7
		c0,0.2,0,0.3,0,0.4c0,0.3,0,0.5,0,0.7v0.4c0,0.2,0,0.4-0.1,0.6c0,0.1,0.1,0.2,0.2,0.2c0.1,0,0.2-0.1,0.2-0.3c0,0,0,0,0.1-0.1v-0.1
		c-0.1-0.1-0.1-0.2-0.1-0.2v0c0,0,0-0.1,0.1-0.2v0c-0.1-0.2-0.1-0.3-0.1-0.3c0.1-0.2,0.1-0.2,0.1-0.3c-0.1-0.1-0.2-0.2-0.2-0.2v0
		c0.1-0.1,0.1-0.2,0-0.3l0-0.1v-0.1c0.1-0.2,0.1-0.3,0.1-0.3c0,0,0-0.1-0.1-0.2c0.1-0.1,0.2-0.1,0.2-0.2v0l-0.2-0.2c0,0,0-0.1,0-0.1
		l0.1-0.3c0-0.1,0-0.2,0-0.2v0c0-0.1,0-0.2,0-0.2v0c0-0.1-0.1-0.2-0.1-0.2c0-0.2,0.1-0.2,0.1-0.2c0-0.1,0-0.2,0-0.2l0.1-0.3
		c-0.1-0.2-0.1-0.2-0.1-0.3c0,0,0-0.1,0.1-0.2c0,0-0.1-0.1-0.2-0.2l0-0.1c0,0,0.1-0.1,0.2-0.2v0c-0.1-0.1-0.2-0.2-0.2-0.2v0
		c0.1-0.1,0.1-0.2,0.1-0.2c0,0,0-0.1,0-0.2c0.1-0.2,0.1-0.3,0.1-0.3c0-0.1-0.1-0.2-0.1-0.2c0,0,0-0.1,0.1-0.2
		c-0.1-0.2-0.1-0.2-0.1-0.3v0c0,0,0-0.1,0.1-0.2v0c-0.1-0.1-0.1-0.2-0.1-0.2l0.1-0.3l-0.1-0.2c0.1-0.2,0.1-0.2,0.1-0.3
		c-0.1-0.1-0.1-0.2-0.1-0.2c0,0,0-0.1,0.1-0.2c-0.1-0.2-0.1-0.3-0.1-0.3c0-0.1,0.1-0.1,0.1-0.2v0c-0.1-0.2-0.2-0.3-0.3-0.4h-0.1
		C25.2,24.1,25.2,24.1,25.2,24.2z M29.3,24.2c0,0.4,0,0.6,0,0.8v1.3c0,0.1,0,0.2,0,0.4c0,0,0,0.1,0,0.2c0,0.3,0.1,0.6,0.1,0.7
		c-0.1,0.2-0.1,0.3-0.1,0.4v0.2c0,0.2,0,0.4,0.1,0.6c-0.1,0.3-0.1,0.5-0.1,0.6v0.1c0,0.1,0.1,0.2,0.2,0.2c0.1,0,0.2-0.1,0.2-0.1
		l-0.1-0.3v0c0,0,0-0.1,0.1-0.2c0,0,0-0.1-0.1-0.2c0,0,0-0.1,0.1-0.3c0,0,0,0,0-0.1c-0.1-0.1-0.1-0.2-0.1-0.2c0,0,0-0.1,0-0.2v0
		c0-0.1-0.1-0.2-0.1-0.2c0.1-0.1,0.1-0.2,0.1-0.2v0c0,0,0-0.1-0.1-0.2c0.1-0.1,0.1-0.2,0.1-0.2c-0.1-0.2-0.1-0.3-0.1-0.3l0.1-0.2
		c-0.1-0.1-0.1-0.2-0.1-0.2v0c0,0,0-0.1,0.1-0.3c0,0,0-0.1-0.1-0.2c0.1-0.1,0.1-0.2,0.1-0.2v0c0,0,0-0.1,0-0.2v0c0-0.1,0-0.2,0-0.2
		c0,0,0-0.1-0.1-0.3v0c0.1-0.1,0.1-0.2,0.1-0.2c-0.1-0.3-0.2-0.4-0.3-0.4h0C29.4,24.1,29.3,24.1,29.3,24.2z M29.3,33
		c0,0.2,0,0.4,0,0.7c0,0.1,0,0.3,0,0.4c0,0.1,0.1,0.2,0.2,0.2h0c0.1,0,0.1-0.1,0.2-0.2c0.1-0.1,0.1-0.2,0.1-0.2l-0.1-0.3
		c0.1-0.1,0.1-0.2,0.1-0.2v0c-0.1-0.1-0.1-0.2-0.1-0.3c0,0,0-0.1,0.1-0.2c0-0.1-0.1-0.1-0.3-0.1C29.4,32.7,29.3,32.8,29.3,33z"/>
	<path class="st0" d="M36.2,23.7c0.1,0,0.3,0,0.5,0c0.1,0,0.1,0,0.2,0c0.1,0,0.2,0,0.3,0h0.2c0.2,0,0.3,0.1,0.3,0.3
		c-0.1,0.3-0.1,0.4-0.1,0.5v0.1c0.1,0.5,0.2,0.8,0.2,1c0,0.3,0.1,0.5,0.1,0.6c0,0.1,0.1,0.3,0.1,0.6c0.1,0.2,0.2,0.4,0.2,0.7
		c0.1,0.2,0.2,0.4,0.2,0.7c0.1,0.2,0.2,0.4,0.2,0.7c0.1,0.2,0.2,0.4,0.2,0.7c0.1,0.2,0.2,0.4,0.2,0.8c0.1,0.1,0.1,0.3,0.1,0.6
		c0.1,0.2,0.2,0.4,0.2,0.7c0.1,0.2,0.1,0.5,0.2,0.8c0.1,0,0.1,0.2,0.2,0.6c0.1,0.2,0.1,0.4,0.2,0.7c0.2,0.4,0.4,0.6,0.4,0.7
		c0,0.1-0.1,0.2-0.4,0.2c-0.6,0-1,0-1.1,0c-0.1,0-0.2,0-0.3,0c-0.6,0-1,0-1-0.1c0,0,0,0,0-0.1v-0.5c0-0.3-0.1-0.5-0.2-0.6
		c-0.1-0.1-0.3-0.1-0.7-0.1h-1.3c-0.3,0-0.5,0.1-0.6,0.2c0,0.1-0.1,0.3-0.1,0.7c0,0.2,0,0.3,0,0.4c0,0.2-0.1,0.2-0.3,0.2h-1
		c-0.2,0-0.4,0-0.6,0c-0.3,0-0.5-0.1-0.5-0.2c0,0,0.1-0.2,0.3-0.5c0-0.1,0.1-0.4,0.2-0.7c0-0.1,0.1-0.3,0.2-0.6
		c0-0.2,0.1-0.4,0.2-0.8c0-0.2,0.1-0.4,0.2-0.7c0-0.2,0.1-0.4,0.2-0.7c0-0.3,0.1-0.5,0.1-0.6c0,0,0.1-0.2,0.1-0.6
		c0.1-0.1,0.1-0.3,0.2-0.7c0.1-0.2,0.2-0.4,0.2-0.7c0.1-0.1,0.2-0.3,0.2-0.7c0.1-0.1,0.1-0.3,0.2-0.7c0.1-0.1,0.1-0.4,0.2-0.7
		c0.1-0.2,0.2-0.4,0.2-0.7c0.1-0.2,0.2-0.4,0.2-0.6v0c0-0.2,0-0.4-0.1-0.6c0-0.1,0.1-0.2,0.2-0.2h0.4C35.7,23.7,35.9,23.7,36.2,23.7
		z M35.1,24.4L35.1,24.4c0,0.3,0,0.4,0,0.4C35,25,35,25.2,35,25.3c0,0.1-0.1,0.3-0.2,0.6c0,0.2-0.1,0.4-0.2,0.7
		c0,0.1-0.1,0.4-0.2,0.7c0,0.1-0.1,0.4-0.2,0.7c0,0.1-0.1,0.4-0.2,0.6c0,0.1-0.1,0.4-0.2,0.8c0,0.1-0.1,0.4-0.2,0.7
		c0,0.1-0.1,0.3-0.2,0.6c0,0.2,0,0.4-0.1,0.7c0,0.3-0.1,0.6-0.2,0.7c0,0.3-0.1,0.6-0.2,0.8c0,0.2-0.1,0.5-0.2,0.9c0,0.1,0,0.1,0,0.2
		c0,0.1,0.1,0.2,0.2,0.2c0.1,0,0.3-0.1,0.4-0.4c0,0,0,0,0.1-0.1c0-0.1,0-0.1,0-0.2c0,0,0-0.1,0.1-0.3c0-0.1,0-0.2,0-0.3
		c0.1-0.1,0.1-0.2,0.1-0.2c0,0,0-0.1-0.1-0.2c0,0,0.1-0.1,0.2-0.2v0c0-0.1-0.1-0.2-0.1-0.2v0c0,0,0.1-0.1,0.2-0.3v0
		c0-0.1-0.1-0.2-0.1-0.2l0.2-0.3v0c0-0.1,0-0.2,0-0.2c0.1-0.1,0.1-0.2,0.1-0.3c0-0.2,0-0.2,0-0.3c0.1-0.1,0.1-0.2,0.1-0.2
		c-0.1-0.1-0.1-0.2-0.1-0.2c0,0,0.1-0.1,0.2-0.2v-0.1c0-0.1,0-0.2,0-0.2c0,0,0.1-0.1,0.2-0.2c0,0,0,0,0-0.1l0-0.2c0,0,0-0.1,0.1-0.3
		c0,0,0-0.1,0-0.3c0.1-0.1,0.1-0.2,0.1-0.2c0-0.1,0-0.2,0-0.2v0c0,0,0.1-0.1,0.2-0.2v-0.1c0-0.1-0.1-0.1-0.1-0.2v0
		c0,0,0.1-0.1,0.2-0.3v0c0,0,0-0.1,0-0.2v0c0,0,0-0.1,0.1-0.3v0c0-0.1,0-0.2,0-0.2c0.1-0.1,0.1-0.2,0.1-0.2l-0.1-0.2
		c0,0,0.1-0.1,0.2-0.2v0c0-0.1,0-0.2,0-0.2c0,0,0.1-0.1,0.2-0.2v0c0,0,0-0.1-0.1-0.2c0,0,0.1-0.1,0.2-0.3v0c0,0,0-0.1,0-0.2
		c0,0,0.1-0.1,0.2-0.3v-0.1c-0.1-0.3-0.2-0.4-0.3-0.4C35.2,24.1,35.1,24.2,35.1,24.4z M35.1,31.1L35.1,31.1c0,0.3,0.1,0.3,0.3,0.3
		h1.2c0.1,0,0.2-0.1,0.2-0.2v0c-0.1-0.3-0.1-0.5-0.1-0.7c-0.1-0.2-0.2-0.5-0.2-0.8c-0.1-0.1-0.2-0.4-0.2-0.7
		c-0.1-0.1-0.2-0.4-0.2-0.7c-0.1-0.1-0.1-0.2-0.2-0.2c-0.1,0-0.1,0.2-0.2,0.5c-0.1,0.2-0.2,0.4-0.2,0.7c-0.1,0.2-0.2,0.4-0.2,0.7
		c-0.1,0.2-0.2,0.4-0.2,0.7C35.2,30.9,35.1,31.1,35.1,31.1z M36.4,27.9V28c0.1,0.3,0.2,0.5,0.2,0.6l0.2,0.5c0,0.1,0.1,0.4,0.2,0.7
		c0,0.2,0.1,0.4,0.2,0.7c0,0.1,0.1,0.4,0.2,0.9c0,0.2,0.1,0.2,0.2,0.2c0.2,0,0.4-0.1,0.4-0.2v0l-0.2-0.2c0,0,0,0,0,0
		c0-0.1,0-0.2,0-0.2c0,0,0-0.1-0.1-0.3c0,0,0,0,0-0.1c0-0.1,0-0.1,0-0.1v-0.1c-0.1-0.1-0.2-0.2-0.2-0.2c0-0.1,0.1-0.2,0.1-0.3
		l-0.2-0.2v0c0,0,0-0.1,0.1-0.2v0l-0.2-0.2c0-0.1,0-0.2,0-0.3c-0.1-0.1-0.1-0.2-0.1-0.2c0,0,0-0.1,0-0.2c0,0-0.1-0.1-0.2-0.3l0-0.1
		c0-0.1,0-0.1,0-0.2c0-0.1-0.1-0.2-0.4-0.3C36.5,27.7,36.4,27.8,36.4,27.9z M37.6,33.1c0.1,0.2,0.1,0.5,0.1,0.8V34
		c0,0.2,0.1,0.3,0.2,0.3h0c0.1,0,0.3-0.1,0.4-0.4c0,0-0.1-0.1-0.2-0.2v0c0-0.1,0.1-0.2,0.1-0.2v0c-0.1-0.2-0.1-0.3-0.1-0.5
		c-0.1,0-0.1-0.1-0.2-0.1h-0.1C37.7,32.9,37.6,32.9,37.6,33.1z"/>
	<path class="st0" d="M44.7,23.7h0.1c0.1,0,0.2,0,0.2,0c0.1,0,0.3,0,0.3,0h1.3c0.3,0,0.4,0.1,0.4,0.2c0,0.1-0.1,0.3-0.2,0.5
		c0,0,0,0.1,0,0.1v7.7c0,0.2,0.1,0.3,0.3,0.3h1.9c0.2,0,0.4-0.1,0.6-0.2c0,0,0.1,0,0.1,0c0.2,0,0.3,0.1,0.3,0.4v0.1h0l0,0v1.3
		c0,0.2,0,0.4-0.1,0.4c-0.1,0-0.3,0-0.4,0h-3c-0.4,0-1,0-1.7,0c0,0-0.1,0-0.2,0c-0.2,0-0.3-0.1-0.3-0.2v0l0.1-0.4l0.1-0.5v-0.7
		c0-0.2,0-0.3,0-0.3c0-0.2,0-0.3,0-0.4V25c0-0.3-0.1-0.7-0.2-1v-0.1C44.3,23.7,44.5,23.7,44.7,23.7z M44.8,24.3
		c0.1,0.2,0.1,0.4,0.1,0.6c0,0.1,0,0.2,0,0.3c0,0.1,0,0.2,0,0.3c0,0.1,0,0.2,0,0.3h0c0,0,0,0,0,0c0,0.1,0,0.2,0,0.2
		c0,0.2,0,0.3,0,0.4v0.5c0,0.2,0,0.3,0,0.5c0,0.1,0,0.2,0,0.3c0,0.1,0,0.2,0,0.3c0,0.1,0,0.3,0,0.4c0,0.2,0,0.3,0,0.5
		c0,0.2,0,0.4,0,0.6c0,0.2,0,0.4,0,0.4c0,0.3,0,0.5,0,0.7v2.4c0,0.1,0,0.3,0,0.5c0,0,0,0.1,0,0.2c-0.1,0.3-0.1,0.4-0.1,0.4
		c0,0.2,0.1,0.3,0.3,0.3c0.2,0,0.3-0.1,0.3-0.3c0.1-0.1,0.1-0.1,0.1-0.2v0c-0.1-0.1-0.1-0.2-0.1-0.3c0.1-0.1,0.1-0.2,0.1-0.2
		c0,0,0-0.1-0.1-0.2V33c0,0,0-0.1,0.1-0.2v0c-0.1-0.1-0.1-0.2-0.1-0.2c0.1-0.1,0.1-0.2,0.1-0.3c0,0,0-0.1-0.1-0.2V32
		c0-0.1,0.1-0.2,0.1-0.2c0-0.2-0.1-0.2-0.1-0.3c0.1-0.1,0.1-0.2,0.1-0.2c-0.1-0.1-0.1-0.2-0.1-0.2v0c0,0,0-0.1,0.1-0.2
		c-0.1-0.1-0.1-0.2-0.1-0.3v0c0.1-0.1,0.1-0.2,0.1-0.3c-0.1-0.1-0.1-0.2-0.1-0.2v0c0-0.1,0.1-0.2,0.1-0.2c0,0,0-0.1-0.1-0.2
		c0.1-0.1,0.1-0.2,0.1-0.2c0,0,0-0.1-0.1-0.3v0c0.1-0.1,0.1-0.2,0.1-0.2c0,0,0-0.1-0.1-0.2v-0.1c0,0,0-0.1,0.1-0.2v0
		c-0.1-0.1-0.1-0.2-0.1-0.2c0.1-0.1,0.1-0.2,0.1-0.2v0c-0.1-0.1-0.1-0.2-0.1-0.2c0-0.1,0.1-0.2,0.1-0.2c0-0.2-0.1-0.3-0.1-0.3
		c0.1-0.1,0.1-0.2,0.1-0.2v0c-0.1-0.2-0.1-0.2-0.1-0.3c0-0.1,0.1-0.1,0.1-0.2v-0.1c-0.1-0.1-0.1-0.2-0.1-0.2c0,0,0-0.1,0.1-0.3v0
		c-0.1-0.1-0.1-0.2-0.1-0.2c0-0.1,0.1-0.2,0.1-0.2v0c0-0.1-0.1-0.2-0.1-0.2c0.1-0.1,0.1-0.2,0.1-0.2v0c-0.1-0.1-0.1-0.2-0.1-0.3
		l0.1-0.2c-0.2-0.3-0.3-0.4-0.4-0.4C44.8,24.1,44.8,24.1,44.8,24.3z"/>
	<path class="st0" d="M51.1,23.7h2.4c0.2,0,0.2,0.1,0.2,0.2v0c0,0,0,0.2-0.1,0.4c0,0.1,0,0.1,0,0.2v9.2c0,0.2,0.1,0.4,0.2,0.6v0.1
		c0,0.1-0.1,0.2-0.2,0.2h-2.4c-0.2,0-0.3,0-0.3-0.1c0.1-0.3,0.2-0.5,0.2-0.6c0,0,0-0.1,0-0.2v-9c0-0.1-0.1-0.3-0.2-0.7
		c0-0.1,0-0.1,0-0.2C50.8,23.7,50.9,23.7,51.1,23.7z M51.3,24.2L51.3,24.2c0.1,0.3,0.1,0.4,0.1,0.6v7.2c0,0.3,0,0.6,0,0.9
		c0,0,0,0.2,0,0.6v0.2c0,0.1,0,0.2-0.1,0.4v0c0,0.1,0.1,0.1,0.2,0.1h0c0.1,0,0.2-0.1,0.3-0.3c0,0,0,0,0.1-0.1v0c0,0,0-0.1-0.1-0.2
		c0,0,0,0,0,0l0.1-0.2c-0.1-0.1-0.1-0.2-0.1-0.2c0.1-0.2,0.1-0.2,0.1-0.3v0c0,0,0-0.1-0.1-0.2l0-0.2v-0.1c0,0,0-0.1,0-0.2v0
		c0,0,0-0.1,0.1-0.2v0c-0.1-0.1-0.1-0.2-0.1-0.2v0c0.1-0.2,0.1-0.2,0.1-0.3l-0.1-0.2v-0.1c0.1-0.1,0.1-0.2,0.1-0.2v0
		c-0.1-0.1-0.1-0.2-0.1-0.3c0.1-0.1,0.1-0.2,0.1-0.2c0,0,0-0.1-0.1-0.2c0.1-0.1,0.1-0.2,0.1-0.2c-0.1-0.1-0.1-0.2-0.1-0.3
		c0.1-0.1,0.1-0.2,0.1-0.2c-0.1-0.2-0.1-0.2-0.1-0.3c0.1-0.2,0.1-0.2,0.1-0.3c-0.1-0.1-0.1-0.2-0.1-0.2v0c0.1-0.1,0.1-0.2,0.1-0.2v0
		c0-0.1-0.1-0.2-0.1-0.2l0.1-0.2l-0.1-0.3v0c0,0,0-0.1,0.1-0.2c-0.1-0.2-0.1-0.2-0.1-0.2v0c0,0,0-0.1,0.1-0.2
		c-0.1-0.1-0.1-0.2-0.1-0.2v0c0,0,0-0.1,0.1-0.3l-0.1-0.2c0.1-0.1,0.1-0.2,0.1-0.2c0,0,0-0.1-0.1-0.2v0c0.1-0.1,0.1-0.2,0.1-0.2
		c-0.1-0.1-0.1-0.2-0.1-0.2v0c0,0,0-0.1,0.1-0.2c0,0,0-0.1-0.1-0.2v0c0.1-0.2,0.1-0.2,0.1-0.3l-0.2-0.4l-0.1,0h-0.1
		C51.4,24,51.3,24.1,51.3,24.2z"/>
	<path class="st0" d="M55,23.7h5.3c0.2,0,0.3,0.1,0.3,0.4v1.5c0,0.3-0.1,0.4-0.2,0.4h0c0,0-0.2,0-0.4-0.1c0,0-0.1,0-0.3,0h-2
		c-0.2,0-0.3,0.1-0.3,0.3v1.6c0,0.2,0.1,0.3,0.2,0.3l0.2,0H59c0.1,0,0.3-0.1,0.6-0.2c0,0,0.1,0,0.1,0c0.1,0,0.2,0.1,0.2,0.4
		c0,0,0,0,0,0c0,0.1,0,0.2,0,0.2v1c0,0.3-0.1,0.4-0.2,0.4h-0.1l-0.4-0.1c0,0-0.2,0-0.5-0.1c-0.2,0-0.4,0-0.5,0c-0.3,0-0.4,0-0.5,0
		c-0.2,0-0.4,0.1-0.4,0.4v2c0,0.2,0.1,0.3,0.2,0.4c0.1,0,0.2,0,0.2,0c0.3,0,0.5,0,0.6,0h0.8c0.5,0,0.8-0.1,1.1-0.2h0
		c0.1,0,0.2,0.1,0.2,0.4v1.4c0,0.3-0.1,0.4-0.3,0.4H55c-0.2,0-0.3-0.1-0.3-0.2c0.2-0.5,0.3-0.8,0.3-0.8c0,0,0-0.1,0-0.2v-8.7
		c0-0.2-0.1-0.4-0.2-0.7c-0.1-0.2-0.1-0.3-0.1-0.3v0C54.7,23.7,54.8,23.7,55,23.7z M55.2,24.2L55.2,24.2c0.1,0.3,0.1,0.5,0.1,0.7
		c0,0.1,0,0.2,0,0.3c0,0.1,0,0.2,0,0.3c0,0.1,0,0.2,0,0.3c0,0,0,0.1,0,0.1l0,0.2c0,0.1,0,0.2,0,0.3c0,0.2,0,0.4,0,0.6v0.2
		c0,0,0,0.1,0,0.1c0,0,0,0.1,0,0.1v0c0,0.2,0,0.3,0,0.4c0,0.1,0,0.2,0,0.3c0,0.1,0,0.1,0,0.2c0,0.1,0,0.2,0,0.2c0,0.1,0,0.2,0,0.2
		c0,0.1,0,0.3,0,0.4v0.1c0,0.2,0,0.3,0,0.4c0,0.1,0,0.1,0,0.2c0,0.1,0,0.1,0,0.3c0,0.1,0,0.2,0,0.3c0,0.1,0,0.1,0,0.2
		c0,0.1,0,0.2,0,0.4v0.1c0,0.2,0,0.3,0,0.5c0,0.1,0,0.2,0,0.3l0,0.3c0,0,0,0.1,0,0.1c0,0.3,0,0.5,0,0.7v0.4c0,0.1,0,0.2-0.1,0.5v0
		c0,0.1,0.1,0.2,0.2,0.2c0.1,0,0.2-0.1,0.3-0.3c0,0,0.1,0,0.1-0.1c-0.1-0.1-0.1-0.2-0.1-0.3c0,0,0-0.1,0.1-0.2c0,0,0-0.1-0.1-0.2v0
		c0.1-0.2,0.1-0.3,0.1-0.3l-0.1-0.2v0c0-0.1,0.1-0.2,0.1-0.2c-0.1-0.2-0.1-0.2-0.1-0.3c0.1-0.1,0.1-0.2,0.1-0.2v0
		c-0.1-0.1-0.1-0.2-0.1-0.2v0c0,0,0-0.1,0.1-0.2c-0.1-0.1-0.1-0.2-0.1-0.2v0c0.1-0.2,0.1-0.2,0.1-0.3v0c0,0,0-0.1-0.1-0.2v0
		c0-0.1,0.1-0.2,0.1-0.2v0c0,0,0-0.1-0.1-0.2c0.1-0.1,0.1-0.2,0.1-0.2c-0.1-0.2-0.1-0.3-0.1-0.3c0,0,0-0.1,0.1-0.2v0
		c-0.1-0.1-0.1-0.2-0.1-0.2v0c0,0,0-0.1,0.1-0.2v0c-0.1-0.1-0.1-0.2-0.1-0.2v0c0-0.1,0.1-0.2,0.1-0.2v0c0-0.1-0.1-0.2-0.1-0.2v0
		c0,0,0-0.1,0.1-0.2v0c-0.1-0.1-0.1-0.2-0.1-0.3c0,0,0-0.1,0.1-0.2v-0.1c0,0,0-0.1-0.1-0.3c0,0,0-0.1,0.1-0.2v0
		c-0.1-0.1-0.1-0.2-0.1-0.2v0c0,0,0-0.1,0.1-0.3c0-0.1-0.1-0.1-0.1-0.2v-0.1c0-0.1,0.1-0.2,0.1-0.2c0-0.1-0.1-0.2-0.1-0.2
		c0.1-0.1,0.1-0.2,0.1-0.2c0,0,0-0.1-0.1-0.3v0c0,0,0-0.1,0.1-0.2c0,0,0-0.1-0.1-0.3v0c0,0,0-0.1,0.1-0.2v0c0,0-0.1-0.2-0.3-0.4
		c-0.1,0-0.1,0-0.1,0C55.3,24,55.2,24.1,55.2,24.2z"/>
	<path class="st0" d="M63.1,23.7l0.1,0c0.3,0,0.5,0,0.7,0c0.7,0,1.2,0,1.4,0.1c0.1,0,0.3,0,0.8,0c0.2,0.1,0.4,0.2,0.7,0.2
		c0.4,0.2,0.5,0.3,0.6,0.4c0.4,0.3,0.5,0.6,0.5,0.7c0.1,0.1,0.1,0.3,0.2,0.6c0.1,0.1,0.1,0.4,0.1,0.8v0.2c0,0.5,0,0.7-0.1,0.9
		c0,0.1-0.1,0.2-0.2,0.5c-0.1,0.3-0.3,0.6-0.5,0.8l0,0.1c0,0.1,0.2,0.3,0.5,0.6c0.2,0.2,0.3,0.5,0.4,0.9c0,0.1,0,0.3,0.1,0.6
		c0,0.1,0,0.2,0,0.4v0.3c0,0.2-0.1,0.4-0.2,0.7c0,0.5-0.3,1-1,1.5c-0.5,0.3-0.9,0.4-1.1,0.4c0,0-0.2,0-0.4,0.1l-0.1,0
		c-0.8,0-1.5,0-2,0h-1.1c-0.1,0-0.1,0-0.2,0c0,0-0.1,0-0.2,0h-0.5c-0.2,0-0.2,0-0.2-0.1v0c0-0.1,0.1-0.2,0.2-0.5c0-0.1,0-0.2,0-0.4
		v-8.6c0-0.3,0-0.5-0.1-0.6c-0.1-0.2-0.1-0.3-0.1-0.4v0c0-0.1,0.1-0.1,0.2-0.2h0.8C62.7,23.7,62.9,23.7,63.1,23.7z M62.2,24.3
		c0,0.3,0,0.5,0,0.6v8.7c0,0.2,0,0.3-0.1,0.6v0c0,0.1,0.1,0.1,0.2,0.1c0.1,0,0.3-0.1,0.4-0.4c-0.1-0.1-0.1-0.2-0.1-0.2v0
		c0-0.1,0.1-0.2,0.1-0.2v-0.1c0,0,0-0.1-0.1-0.2c0.1-0.1,0.1-0.2,0.1-0.2c-0.1-0.2-0.1-0.2-0.1-0.3v0c0.1-0.1,0.1-0.2,0.1-0.2
		c-0.1-0.2-0.1-0.2-0.1-0.2v0c0,0,0-0.1,0.1-0.2v0c-0.1-0.1-0.1-0.2-0.1-0.2c0,0,0-0.1,0.1-0.2c0,0,0-0.1-0.1-0.2v0
		c0-0.1,0.1-0.2,0.1-0.2v0c-0.1-0.1-0.1-0.2-0.1-0.2v-0.1c0.1-0.1,0.1-0.2,0.1-0.2c-0.1-0.2-0.1-0.2-0.1-0.3v0c0,0,0-0.1,0.1-0.2V30
		c0,0,0-0.1-0.1-0.2v0c0.1-0.2,0.1-0.2,0.1-0.3c0,0,0-0.1-0.1-0.2c0.1-0.2,0.1-0.2,0.1-0.3c-0.1-0.1-0.1-0.2-0.1-0.2
		c0.1-0.1,0.1-0.2,0.1-0.2v0c0,0,0-0.1-0.1-0.2v0c0.1-0.1,0.1-0.2,0.1-0.2v0c-0.1-0.1-0.1-0.2-0.1-0.2c0,0,0-0.1,0.1-0.2v0
		c0,0,0-0.1-0.1-0.2c0.1-0.1,0.1-0.2,0.1-0.3c-0.1-0.1-0.1-0.2-0.1-0.2c0,0,0-0.1,0.1-0.2v0c0,0,0-0.1-0.1-0.2v-0.1
		c0.1-0.1,0.1-0.1,0.1-0.2c-0.1-0.2-0.1-0.2-0.1-0.3c0-0.1,0.1-0.1,0.1-0.2v-0.1c-0.1-0.1-0.1-0.2-0.1-0.2v0
		c0.1-0.2,0.1-0.2,0.1-0.3v0c0,0,0-0.1-0.1-0.2v-0.1c0.1-0.1,0.1-0.2,0.1-0.3c0,0-0.1-0.1-0.2-0.3c0-0.1-0.1-0.1-0.2-0.1h0
		C62.2,24.1,62.2,24.1,62.2,24.3z M64.3,28c0,0.4,0.1,0.5,0.2,0.5c0.2,0,0.5-0.1,0.9-0.4c0.2-0.3,0.4-0.7,0.4-1v-0.3
		c0-0.4-0.1-0.7-0.4-1c-0.3-0.2-0.5-0.2-0.7-0.2c-0.2,0-0.3,0.1-0.3,0.4V28z M64.3,30.3v2.1c0,0.3,0.1,0.5,0.2,0.5c0,0,0,0,0.1,0
		c0.1,0,0.4-0.1,0.8-0.3c0.4-0.3,0.5-0.5,0.5-0.6c0.1-0.2,0.2-0.3,0.2-0.6c0-0.2-0.1-0.6-0.4-1c-0.1-0.1-0.4-0.3-0.9-0.6
		c0,0-0.1,0-0.1,0h-0.1C64.4,29.9,64.3,30,64.3,30.3z M65.6,25.5L65.6,25.5c0,0.1,0.1,0.2,0.3,0.5c0.1,0.3,0.2,0.5,0.2,0.7v0.5
		c0,0.2-0.1,0.4-0.2,0.6c0,0.1-0.1,0.3-0.3,0.4c-0.1,0.1-0.1,0.1-0.1,0.2v0c0,0.1,0.1,0.1,0.2,0.1c0.1,0,0.2-0.1,0.3-0.4
		c0.2-0.1,0.4-0.2,0.4-0.2l0,0c0-0.1-0.1-0.2-0.1-0.2c0,0,0.1-0.1,0.2-0.3c0-0.2,0-0.3,0.1-0.4c0.1,0,0.1-0.1,0.1-0.2v0
		c-0.1-0.1-0.1-0.2-0.1-0.2c0-0.1,0-0.2,0-0.2c0,0-0.1-0.1-0.2-0.3v0l0-0.1c0-0.1-0.1-0.2-0.4-0.3c-0.1-0.2-0.1-0.2-0.2-0.3
		c-0.1,0-0.1,0-0.1,0C65.7,25.5,65.6,25.5,65.6,25.5z M65.8,30L65.8,30c0,0.1,0.1,0.2,0.3,0.4c0,0,0.1,0.2,0.2,0.4
		c0.1,0.3,0.2,0.5,0.2,0.7c0,0.3-0.1,0.7-0.4,1c-0.3,0.2-0.4,0.4-0.4,0.4V33c0,0,0.1,0.1,0.2,0.1c0.2,0,0.3-0.1,0.5-0.4
		c0.2-0.1,0.4-0.2,0.4-0.3l-0.1-0.2c0,0,0.1-0.1,0.2-0.3c0-0.2,0-0.3,0.1-0.3c0,0,0.1-0.1,0.1-0.1c-0.1-0.1-0.1-0.2-0.1-0.3l0-0.2
		c0,0-0.1-0.1-0.2-0.3l0,0l0-0.2c0-0.1-0.1-0.2-0.4-0.3c-0.1-0.2-0.2-0.3-0.4-0.3C65.9,29.9,65.9,29.9,65.8,30z"/>
	<path class="st0" d="M71.3,23.6c0.3,0,0.6,0.1,1.1,0.1c0.1,0.1,0.3,0.1,0.6,0.1h0.4c0.2,0,0.4,0.1,0.7,0.2c0.1,0,0.4,0.1,0.8,0.3
		c0.6,0.5,0.8,0.8,0.8,1c0,0.1,0.1,0.3,0.2,0.5c0,0.1,0,0.2,0,0.3v1.4c0,0.2-0.1,0.4-0.2,0.6c-0.1,0.3-0.3,0.6-0.6,0.9
		c-0.4,0.3-0.6,0.5-0.6,0.6v0.1c0,0,0.2,0.2,0.5,0.6c0.3,0.5,0.5,1,0.5,1.4c0.1,0.1,0.1,0.4,0.2,0.8c0.1,0.1,0.1,0.3,0.2,0.7
		c0,0,0.1,0.2,0.2,0.5c0.1,0.3,0.2,0.4,0.3,0.6c0.1,0.1,0.1,0.2,0.1,0.3v0c0,0.1-0.1,0.2-0.4,0.2c-0.1,0-0.2,0-0.4,0
		c-0.3,0-0.5,0-0.7,0h-0.1c-0.6-0.1-0.9-0.2-1-0.3c-0.1-0.1-0.3-0.4-0.6-1c0-0.4-0.1-0.7-0.2-0.9l-0.1-0.8c-0.1-0.2-0.1-0.4-0.2-0.6
		c-0.2-0.4-0.4-0.5-0.7-0.5h0c-0.2,0-0.3,0.1-0.3,0.3v2.8c0,0.1,0.1,0.3,0.2,0.6c0.1,0.2,0.1,0.3,0.1,0.3v0c0,0.1-0.1,0.2-0.4,0.2
		h-0.9c-0.1,0-0.3,0-0.4,0c-0.1,0-0.2,0-0.3,0h-0.4c-0.3,0-0.4-0.1-0.4-0.3c0.1-0.3,0.1-0.4,0.1-0.4c0-0.1,0-0.3,0-0.7v-8.2
		c0-0.6-0.1-1-0.2-1.1l0-0.1v-0.1c0-0.1,0.1-0.2,0.3-0.2h1.1C70.8,23.6,71,23.6,71.3,23.6z M69.7,24.3c0,0.6,0,0.9,0,0.9
		c0,0.1,0,0.2,0,0.3v0.7c0,0.2,0,0.3,0,0.6c0,0,0,0.1,0,0.1c0,0,0,0.1,0,0.1c0,0.3,0,0.5,0,0.7v1.5c0,0.1,0,0.2,0,0.3
		c0,0.1,0,0.2,0,0.3v2c0,0,0,0,0,0.1c0,0,0,0,0,0.1v0.3c0,0.3,0,0.7,0,1.1c0,0.1,0,0.2,0,0.3c0,0.1,0,0.2,0,0.3
		c0,0.2,0.1,0.2,0.2,0.2c0.1,0,0.2-0.1,0.4-0.4v0c-0.1-0.1-0.1-0.2-0.1-0.2c0-0.1,0-0.2,0-0.2v0c-0.1-0.1-0.1-0.2-0.1-0.3
		c0,0,0-0.1,0.1-0.2v0c0,0,0-0.1-0.1-0.3c0,0,0-0.1,0.1-0.2v-0.1c-0.1-0.1-0.1-0.1-0.1-0.2v0c0,0,0-0.1,0.1-0.3v0
		c-0.1-0.1-0.1-0.2-0.1-0.2c0.1-0.1,0.1-0.2,0.1-0.2c-0.1-0.1-0.1-0.2-0.1-0.3c0-0.1,0.1-0.1,0.1-0.1v-0.1c0,0,0-0.1-0.1-0.3
		c0.1-0.1,0.1-0.2,0.1-0.2c0,0,0-0.1-0.1-0.2v0c0,0,0-0.1,0.1-0.2v0c-0.1-0.1-0.1-0.1-0.1-0.2l0.1-0.2c-0.1-0.1-0.1-0.2-0.1-0.2v0
		c0-0.1,0.1-0.2,0.1-0.2v-0.1c-0.1-0.1-0.1-0.2-0.1-0.2c0,0,0-0.1,0.1-0.2c0,0,0-0.1-0.1-0.2c0,0,0,0,0,0c0,0,0.1-0.1,0.1-0.2
		c-0.1-0.1-0.1-0.2-0.1-0.2v0c0.1-0.1,0.1-0.2,0.1-0.2v-0.1c-0.1-0.1-0.1-0.1-0.1-0.2l0.1-0.3c0-0.1-0.1-0.2-0.1-0.2v0
		c0.1-0.1,0.1-0.1,0.1-0.2c-0.1-0.1-0.1-0.2-0.1-0.2v0c0,0,0-0.1,0.1-0.2c-0.1-0.1-0.1-0.2-0.1-0.2v0c0,0,0-0.1,0.1-0.2v0
		c-0.1-0.1-0.1-0.2-0.1-0.2c0,0,0-0.1,0.1-0.3v0c0-0.1-0.1-0.2-0.1-0.2v0c0-0.1,0.1-0.2,0.1-0.2v0c0-0.1-0.1-0.2-0.3-0.4
		c-0.1,0-0.1,0-0.1,0C69.8,24,69.8,24.1,69.7,24.3z M71.9,25.8v2.4c0,0.2,0.1,0.4,0.2,0.4h0.1c0.3-0.1,0.6-0.2,0.7-0.3
		c0.3-0.3,0.4-0.6,0.4-0.9c0-0.2,0-0.3,0-0.4c0-0.7-0.2-1.1-0.6-1.2c-0.1-0.1-0.2-0.1-0.4-0.1h-0.2C72,25.5,71.9,25.6,71.9,25.8z
		 M73,30.4L73,30.4c0,0.1,0.1,0.3,0.3,0.6c0,0.1,0.1,0.3,0.2,0.7c0,0.4,0.1,0.8,0.2,1c0,0.4,0.2,0.8,0.5,1.2
		c0.1,0.1,0.2,0.1,0.2,0.1c0.1,0,0.2-0.1,0.2-0.2v0c0-0.1-0.1-0.2-0.3-0.2c0-0.2-0.1-0.4-0.2-0.5V33c0-0.1,0-0.2,0-0.2
		c-0.1-0.1-0.2-0.2-0.2-0.3v0c0.1-0.1,0.1-0.2,0.1-0.2v0c-0.1-0.1-0.2-0.2-0.2-0.2c0,0,0-0.1,0.1-0.3c0,0,0-0.1-0.1-0.2v0
		c0-0.1,0-0.2,0-0.2c-0.1-0.2-0.1-0.3-0.1-0.3c0-0.1,0-0.2,0-0.2c0,0-0.1-0.1-0.2-0.3c0-0.2-0.1-0.3-0.2-0.3c0,0,0,0-0.1,0
		C73.1,30.3,73,30.3,73,30.4z M73.2,25.4L73.2,25.4c0.2,0.3,0.3,0.5,0.4,0.9c0,0.1,0,0.3,0.1,0.6v0c0,0.5-0.1,0.8-0.2,1
		c0,0.1-0.1,0.2-0.3,0.4v0.1c0,0.1,0.1,0.1,0.1,0.1c0.2,0,0.2-0.1,0.3-0.3c0.1-0.1,0.2-0.2,0.4-0.2l0-0.1c0-0.1,0-0.1,0-0.2
		c0,0,0.1-0.1,0.2-0.3c0-0.2,0-0.3,0.1-0.3c0.1,0,0.1-0.1,0.1-0.2c-0.1-0.2-0.1-0.2-0.1-0.3c0-0.1,0-0.1,0-0.1v0
		c0,0-0.1-0.1-0.2-0.3l0-0.1c0,0,0-0.1,0-0.1c0-0.1-0.1-0.2-0.4-0.3c0,0-0.1-0.1-0.2-0.3c0,0-0.1,0-0.1,0
		C73.3,25.4,73.2,25.4,73.2,25.4z"/>
	<path class="st0" d="M77.2,23.7h5.3c0.2,0,0.3,0.1,0.3,0.4v1.5c0,0.3-0.1,0.4-0.2,0.4h0c0,0-0.2,0-0.4-0.1c0,0-0.1,0-0.3,0h-2
		c-0.2,0-0.3,0.1-0.3,0.3v1.6c0,0.2,0.1,0.3,0.2,0.3l0.2,0h1.3c0.1,0,0.3-0.1,0.6-0.2c0,0,0.1,0,0.1,0c0.1,0,0.2,0.1,0.2,0.4
		c0,0,0,0,0,0c0,0.1,0,0.2,0,0.2v1c0,0.3-0.1,0.4-0.2,0.4h-0.1l-0.4-0.1c0,0-0.2,0-0.5-0.1c-0.2,0-0.4,0-0.5,0c-0.3,0-0.4,0-0.5,0
		c-0.2,0-0.4,0.1-0.4,0.4v2c0,0.2,0.1,0.3,0.2,0.4c0.1,0,0.2,0,0.2,0c0.3,0,0.5,0,0.6,0h0.8c0.5,0,0.8-0.1,1.1-0.2h0
		c0.1,0,0.2,0.1,0.2,0.4v1.4c0,0.3-0.1,0.4-0.3,0.4h-5.2c-0.2,0-0.3-0.1-0.3-0.2c0.2-0.5,0.3-0.8,0.3-0.8c0,0,0-0.1,0-0.2v-8.7
		c0-0.2-0.1-0.4-0.2-0.7C77,24,77,23.9,77,23.8v0C77,23.7,77.1,23.7,77.2,23.7z M77.5,24.2L77.5,24.2c0.1,0.3,0.1,0.5,0.1,0.7
		c0,0.1,0,0.2,0,0.3c0,0.1,0,0.2,0,0.3c0,0.1,0,0.2,0,0.3c0,0,0,0.1,0,0.1l0,0.2c0,0.1,0,0.2,0,0.3c0,0.2,0,0.4,0,0.6v0.2
		c0,0,0,0.1,0,0.1c0,0,0,0.1,0,0.1v0c0,0.2,0,0.3,0,0.4c0,0.1,0,0.2,0,0.3c0,0.1,0,0.1,0,0.2c0,0.1,0,0.2,0,0.2c0,0.1,0,0.2,0,0.2
		c0,0.1,0,0.3,0,0.4v0.1c0,0.2,0,0.3,0,0.4c0,0.1,0,0.1,0,0.2c0,0.1,0,0.1,0,0.3c0,0.1,0,0.2,0,0.3c0,0.1,0,0.1,0,0.2
		c0,0.1,0,0.2,0,0.4v0.1c0,0.2,0,0.3,0,0.5c0,0.1,0,0.2,0,0.3l0,0.3c0,0,0,0.1,0,0.1c0,0.3,0,0.5,0,0.7v0.4c0,0.1,0,0.2-0.1,0.5v0
		c0,0.1,0.1,0.2,0.2,0.2c0.1,0,0.2-0.1,0.3-0.3c0,0,0.1,0,0.1-0.1c-0.1-0.1-0.1-0.2-0.1-0.3c0,0,0-0.1,0.1-0.2c0,0,0-0.1-0.1-0.2v0
		c0.1-0.2,0.1-0.3,0.1-0.3L78,32.6v0c0-0.1,0.1-0.2,0.1-0.2c-0.1-0.2-0.1-0.2-0.1-0.3C78,32,78,31.9,78,31.9v0
		c-0.1-0.1-0.1-0.2-0.1-0.2v0c0,0,0-0.1,0.1-0.2c-0.1-0.1-0.1-0.2-0.1-0.2v0c0.1-0.2,0.1-0.2,0.1-0.3v0c0,0,0-0.1-0.1-0.2v0
		c0-0.1,0.1-0.2,0.1-0.2v0c0,0,0-0.1-0.1-0.2c0.1-0.1,0.1-0.2,0.1-0.2c-0.1-0.2-0.1-0.3-0.1-0.3c0,0,0-0.1,0.1-0.2v0
		c-0.1-0.1-0.1-0.2-0.1-0.2v0c0,0,0-0.1,0.1-0.2v0C78,28.8,78,28.7,78,28.7v0c0-0.1,0.1-0.2,0.1-0.2v0c0-0.1-0.1-0.2-0.1-0.2v0
		c0,0,0-0.1,0.1-0.2v0c-0.1-0.1-0.1-0.2-0.1-0.3c0,0,0-0.1,0.1-0.2v-0.1c0,0,0-0.1-0.1-0.3c0,0,0-0.1,0.1-0.2v0
		c-0.1-0.1-0.1-0.2-0.1-0.2v0c0,0,0-0.1,0.1-0.3c0-0.1-0.1-0.1-0.1-0.2v-0.1c0-0.1,0.1-0.2,0.1-0.2c0-0.1-0.1-0.2-0.1-0.2
		c0.1-0.1,0.1-0.2,0.1-0.2c0,0,0-0.1-0.1-0.3v0c0,0,0-0.1,0.1-0.2c0,0,0-0.1-0.1-0.3v0c0,0,0-0.1,0.1-0.2v0c0,0-0.1-0.2-0.3-0.4
		c-0.1,0-0.1,0-0.1,0C77.5,24,77.5,24.1,77.5,24.2z"/>
</g>
<g>
	<g>
		<path class="st0" d="M20.5,7.6c0-0.1,0-0.1,0.1-0.2c0.1,0,0.2,0,0.3,0.1c0,0.1,0.1,0.1,0.1,0.2c0.3,0.7,0.6,1.4,0.9,2.2
			c-0.2,0.1-0.4,0.2-0.6,0.2c-0.2,0.1-0.4,0.1-0.6-0.1c-0.4-0.2-0.9-0.5-1.4-0.6c-0.3-0.1-0.6,0-0.9,0.1c-0.5,0.2-0.8,0.6-1,1.3
			c-0.2,0.6-0.2,1.2,0.1,1.8c0.3,0.6,0.8,1,1.4,1.2c0.6,0.2,1.1,0.3,1.5,0.1c0.4-0.2,0.8-0.5,1-0.9c0.2-0.4,0.3-0.8,0.1-1.3
			c0.3-0.1,0.7-0.3,1-0.4c0.2,0.7,0.1,1.4-0.2,2.1c-0.3,0.6-0.9,1.1-1.7,1.5c-0.8,0.4-1.7,0.5-2.7,0.3c-1-0.2-1.7-0.7-2.2-1.6
			c-0.5-0.9-0.5-1.8-0.1-2.8c0.5-1,1.2-1.7,2.1-2.1c0.8-0.4,1.6-0.5,2.3-0.3C20.2,8.2,20.6,7.8,20.5,7.6z M16.5,9.8
			C16.5,9.8,16.6,9.7,16.5,9.8C16.6,9.7,16.6,9.7,16.5,9.8C16.3,10,16.3,10,16,10.4c-0.2,0.3-0.3,0.5-0.3,0.6
			c-0.2,0.6-0.2,1.7,0.1,2.3c0.4,0.7,1.1,1.1,1.7,1.4c0.3,0.1,0.5,0.2,0.8,0.2c0.3,0,0.5,0,0.7,0c0.2,0,0.2,0,0-0.1
			c-0.1,0-0.2,0-0.4,0c-0.3,0-0.6-0.1-0.9-0.2c-0.6-0.2-1.3-0.7-1.6-1.2c-0.5-0.7-0.5-1.6-0.3-2.2c0-0.2,0.2-0.5,0.3-0.8
			C16.3,10.2,16.4,10,16.5,9.8z"/>
		<path class="st0" d="M23,7.3c1.1-0.4,2.2-0.8,3.3-1.1c0.2,0.4,0.3,0.7,0.5,1.1c0,0.1,0,0.2-0.1,0.2c-0.1,0-0.1,0-0.1,0
			c0-0.1-0.2-0.1-0.3-0.2c-0.7,0.2-1.4,0.5-2.1,0.7c0.1,0.4,0.3,0.8,0.4,1.2c0.5-0.2,1.1-0.4,1.6-0.5c0.1,0.3,0.2,0.5,0.4,0.8
			c-0.6,0.2-1.1,0.4-1.7,0.6c0.2,0.6,0.4,1.2,0.6,1.8c0.7-0.3,1.4-0.5,2.2-0.7c0.1-0.1,0.2-0.2,0.2-0.3c0-0.1,0.2-0.1,0.2-0.1
			c0,0,0,0,0,0.1c0,0.4,0.1,0.8,0.1,1.2c-0.8,0.2-1.6,0.5-2.4,0.8c-0.6,0.2-1.1,0.4-1.7,0.6c0,0-0.1,0-0.1,0c-0.1,0-0.2,0-0.2-0.1
			c0-0.1,0-0.1,0-0.1c0.1,0,0.1-0.1,0.2-0.2c0.1-0.3,0.1-0.6,0-0.9c-0.3-0.8-0.6-1.5-0.9-2.3c-0.2-0.4-0.3-0.8-0.5-1.2
			c0-0.1-0.1-0.1-0.1-0.2c-0.1-0.1-0.2-0.2-0.4-0.3C22.1,7.9,22,7.9,22,8c-0.1,0.1-0.2-0.1-0.1-0.2c0,0,0.1,0,0.1,0
			c0.1,0,0.2-0.1,0.4-0.1C22.5,7.5,22.8,7.4,23,7.3z M22.8,8.2c0.5,1.4,1,2.8,1.6,4.2c0,0.1,0,0.2,0.1,0.2c0,0,0-0.1,0-0.2
			c-0.5-1.4-1-2.8-1.6-4.2c0-0.1-0.2-0.2-0.3-0.2c0,0-0.1,0,0,0.1C22.7,8.1,22.7,8,22.8,8.2z"/>
		<path class="st0" d="M32.5,10.9c0,0-0.1,0-0.1,0c-0.1,0-0.2,0-0.2-0.1c-0.1-0.1-0.1-0.1,0-0.1c0.1,0,0.1-0.1,0.1-0.1
			c0-0.3-0.2-0.6-0.6-1c-0.4-0.4-0.8-0.6-1-0.7c0,0-0.1,0-0.2-0.1c-0.1,0-0.1,0-0.2,0c0,0-0.1,0-0.1,0c0.1,0.5,0.3,1,0.4,1.6
			c0.1,0.1,0.2,0.3,0.3,0.4c0.1,0.1,0.2,0.1,0.2,0.1c0.1,0,0.1,0,0.1,0.1c0,0.1,0,0.1-0.1,0.2c0,0-0.1,0-0.1,0
			c-0.7,0.2-1.3,0.3-2,0.5c0,0-0.1,0-0.1,0c-0.1,0-0.2,0-0.2-0.1c0-0.1,0-0.1,0.1-0.1c0.1,0,0.1-0.1,0.2-0.2
			c0.2-0.3,0.2-0.6,0.1-0.9c0,0,0,0,0,0c-0.4-1.3-0.7-2.6-1.1-3.9c-0.1-0.1-0.2-0.2-0.4-0.3c-0.1-0.1-0.2-0.1-0.2-0.1
			c-0.1,0-0.2-0.1-0.1-0.2c0,0,0.1,0,0.1,0c1-0.3,2-0.5,3-0.8c0.7-0.1,1.3-0.1,1.7,0.1c0.5,0.3,1,0.8,1,1.6c0,0.4-0.5,1.1-0.8,1.3
			c-0.1,0.1-0.2,0.1-0.3,0.2c0.7,0.5,1.1,1,1.7,1.5c0.1,0.1,0.3,0.2,0.5,0.3c0.1,0.1,0.2,0.1,0.3,0.1c0.1,0,0.1,0,0.2,0.1
			c0,0.1,0,0.1,0,0.1c0,0-0.1,0-0.1,0c-0.3,0.1-0.6,0.1-0.9,0.2c-0.2,0-0.4,0.1-0.6,0.1C32.8,10.8,32.7,10.8,32.5,10.9z M28.2,6.4
			c0.4,1.5,0.8,2.9,1.2,4.4c0,0.1,0,0.2,0.1,0.2c0,0,0.1-0.1,0.1-0.2c-0.4-1.5-0.8-3-1.2-4.4c0-0.1-0.2-0.2-0.2-0.2
			c-0.1,0-0.1,0,0,0.1C28.1,6.3,28.1,6.3,28.2,6.4z M30.1,8.1c0.1,0,0.2,0,0.3-0.1c0.2,0,0.6-0.1,0.7-0.2c0.4-0.2,0.7-0.6,0.6-1.1
			c-0.2-0.6-0.9-0.6-1.6-0.5c-0.2,0-0.4,0.1-0.5,0.1C29.7,7,29.8,7.5,30,8.1C30,8.1,30.1,8.1,30.1,8.1z M31,8.9
			c0.5,0.4,1.1,0.9,1.5,1.4c0,0,0,0.1,0,0.1c0.1,0.1,0.1-0.1,0-0.2C32.2,9.6,31.6,9.2,31,8.9c0-0.1-0.2-0.2-0.3-0.2c0,0,0,0.1,0,0.1
			C30.9,8.8,30.9,8.8,31,8.9z M31.9,7.4c0,0.1-0.1,0.2-0.2,0.3c-0.1,0.1-0.1,0.1-0.1,0.1c0,0,0.1,0,0.2-0.1C32,7.5,32.1,7.2,32,6.8
			c-0.1-0.4-0.3-0.6-0.5-0.7C31.4,6,31.3,6,31.2,6c0,0,0,0,0.1,0.1C31.8,6.2,32.1,6.9,31.9,7.4z"/>
		<path class="st0" d="M39.3,4C39.3,4,39.2,4,39.3,4C39.1,4,39.1,4.1,39,4.2c-0.1,0.1-0.2,0.3-0.3,0.4c-0.3,1.6-0.6,3.2-0.8,4.8
			c0,0.1,0.2,0.5,0.3,0.5c0,0,0.1,0,0.1,0.1c0,0.1-0.1,0.1-0.2,0.1c-0.8,0.1-1.7,0.2-2.5,0.3c-0.1,0-0.2,0-0.2-0.1
			c0-0.1,0-0.1,0-0.1c0.1,0,0.2-0.4,0.2-0.5c0-0.1,0-0.2-0.1-0.2c-0.6-1.4-1.2-2.8-1.9-4.1c-0.1-0.1-0.2-0.2-0.4-0.3
			C33.1,4.9,33,4.8,33,4.9c-0.1,0-0.2-0.1-0.1-0.2c0,0,0.1,0,0.1,0c0.7-0.1,1.5-0.3,2.2-0.4c0.1,0,0.2,0,0.2,0.1c0,0.1,0,0.1,0,0.1
			c-0.1,0-0.1,0.1-0.1,0.2c-0.1,0.2-0.1,0.4,0,0.5c0.6,1.3,1.1,2.6,1.7,3.9c0.2-1.4,0.4-2.8,0.6-4.2c0-0.1,0-0.3-0.1-0.5
			c-0.1-0.1-0.1-0.1-0.2-0.1c-0.1,0-0.1,0-0.1-0.1c0-0.1,0.1-0.1,0.2-0.1c0.6-0.1,1.2-0.1,1.8-0.2C39.2,3.9,39.3,3.9,39.3,4z
			 M33.8,5.2c0.7,1.4,1.3,2.9,2,4.4c0,0,0,0.3,0,0.3c0,0.1,0,0.1,0.1,0c0,0,0-0.3,0-0.3c-0.6-1.5-1.3-2.9-2-4.4
			c0-0.1-0.2-0.2-0.3-0.2c0,0-0.1,0,0,0.1C33.7,5,33.7,5.1,33.8,5.2z M37,9.3c0.1,0,0.2-0.2,0.2-0.3c0.2-1.5,0.4-2.9,0.7-4.4
			c0-0.1-0.1-0.3-0.1-0.3c-0.1-0.1-0.1,0.1-0.1,0.1c0,0.1,0,0.1,0.1,0.1c-0.3,1.4-0.5,2.9-0.7,4.3C37,9.1,37,9.1,37,9.3
			C36.9,9.3,36.9,9.3,37,9.3z"/>
		<path class="st0" d="M41.1,3.7c1.1-0.1,2.3-0.1,3.5-0.1c0,0.4,0.1,0.8,0.1,1.2c0,0.1,0,0.2-0.1,0.1c-0.1,0-0.1,0-0.1-0.1
			c0-0.1-0.2-0.2-0.3-0.2c-0.7,0-1.5,0-2.2,0c0,0.4,0,0.9,0,1.3c0.6,0,1.1,0,1.7,0c0,0.3,0.1,0.6,0.1,0.9c-0.6,0-1.2,0-1.8,0
			c0,0.6,0,1.2,0.1,1.9c0.8,0,1.5,0,2.3,0c0.1,0,0.3-0.2,0.3-0.2c0-0.1,0.2-0.1,0.2,0c0,0,0,0,0,0.1c-0.1,0.4-0.2,0.8-0.2,1.2
			c-0.8,0-1.7,0-2.5,0c-0.6,0-1.2,0-1.7,0.1c0,0-0.1,0-0.1,0c-0.1,0-0.1,0-0.2-0.1c0-0.1,0-0.1,0.1-0.1c0.1,0,0.1-0.1,0.2-0.2
			c0.2-0.3,0.3-0.5,0.2-0.9c0-0.8-0.1-1.6-0.1-2.4c0-0.4-0.1-0.9-0.1-1.3c0-0.1,0-0.2,0-0.2c0-0.1-0.1-0.2-0.3-0.4
			C40,4,39.9,4,39.9,4c-0.1,0-0.1-0.2,0-0.2c0,0,0.1,0,0.1,0c0.1,0,0.2,0,0.4,0C40.6,3.8,40.8,3.7,41.1,3.7z M40.6,4.4
			c0.1,1.5,0.2,3,0.3,4.5c0,0.1,0,0.2,0,0.2c0,0,0.1-0.1,0.1-0.2c-0.1-1.5-0.2-3-0.2-4.5c0-0.1-0.1-0.3-0.2-0.3c0,0-0.1,0,0,0.1
			C40.6,4.3,40.6,4.3,40.6,4.4z"/>
		<path class="st0" d="M50.6,4.6c0.2,0,0.3-0.1,0.5-0.2c0.1-0.1,0.2-0.1,0.2-0.2c0-0.1,0.1-0.1,0.2-0.1c0.1,0,0.2,0.1,0.2,0.2
			c0,0.1,0,0.1,0,0.2c-0.1,0.7-0.2,1.4-0.3,2c-0.2,0-0.4,0-0.5-0.1c-0.2,0-0.3-0.1-0.4-0.3c-0.2-0.4-0.5-0.8-0.8-1.1
			c-0.2-0.2-0.4-0.3-0.7-0.3c-0.4,0-0.9,0.1-1.3,0.5c-0.4,0.4-0.6,0.9-0.7,1.5c0,0.6,0.1,1.1,0.5,1.5C47.7,8.7,48.1,9,48.5,9
			c0.4,0,0.8-0.1,1.1-0.3c0.3-0.2,0.6-0.5,0.7-0.9c0.3,0,0.6,0.1,0.9,0.1c-0.2,0.7-0.5,1.2-1,1.5c-0.5,0.4-1.2,0.5-2,0.4
			c-0.8-0.1-1.5-0.4-2.2-1c-0.6-0.6-1-1.3-1-2.2c0-0.9,0.4-1.6,1.1-2.2C47,4,47.8,3.7,48.7,3.8C49.5,3.9,50.1,4.1,50.6,4.6z
			 M47.4,4.1C47.5,4.1,47.4,4.1,47.4,4.1c-0.3,0.1-0.4,0.1-0.7,0.3c-0.6,0.4-0.8,0.6-1.1,1.3c-0.3,0.7-0.3,1.2-0.1,1.9
			c0.2,0.5,0.5,1,1,1.4C46.6,9,47,9.4,47.1,9.3c0,0,0,0-0.1-0.1c-0.1,0-0.1-0.1-0.3-0.2c-0.3-0.1-0.4-0.3-0.6-0.6
			c-0.3-0.4-0.6-1.1-0.7-1.6c-0.1-0.7,0.3-1.4,0.7-1.9c0.1-0.2,0.3-0.3,0.6-0.5C47.1,4.4,47.2,4.3,47.4,4.1z"/>
		<path class="st0" d="M53.6,4.4C54.7,4.6,55.9,4.8,57,5c0,0.4-0.1,0.8-0.1,1.2c0,0.1-0.1,0.1-0.2,0.1c-0.1,0-0.1,0-0.1-0.1
			c0-0.1-0.1-0.2-0.2-0.3c-0.7-0.2-1.5-0.3-2.2-0.4c-0.1,0.4-0.1,0.9-0.2,1.3c0.6,0.1,1.1,0.2,1.7,0.3c0,0.3-0.1,0.6-0.1,0.9
			c-0.6-0.1-1.2-0.2-1.7-0.3c-0.1,0.6-0.2,1.2-0.3,1.8c0.7,0.1,1.5,0.3,2.2,0.4c0.1,0,0.3-0.1,0.3-0.2c0-0.1,0.2-0.1,0.2,0
			c0,0,0,0.1,0,0.1c-0.2,0.4-0.3,0.7-0.5,1.1c-0.8-0.2-1.7-0.3-2.5-0.5c-0.6-0.1-1.1-0.2-1.7-0.3c0,0-0.1,0-0.1,0
			c-0.1,0-0.1-0.1-0.1-0.2c0-0.1,0-0.1,0.1-0.1c0.1,0,0.1,0,0.2-0.1C52,9.6,52.1,9.4,52.2,9c0.1-0.8,0.2-1.6,0.3-2.4
			c0.1-0.4,0.1-0.9,0.2-1.3c0-0.1,0-0.2,0-0.2c0-0.1-0.1-0.3-0.2-0.4c-0.1-0.1-0.1-0.2-0.2-0.2c-0.1,0-0.1-0.2,0-0.2
			c0,0,0.1,0,0.1,0c0.1,0,0.2,0,0.4,0.1C53.1,4.3,53.3,4.4,53.6,4.4z M53,5c-0.2,1.5-0.4,3-0.7,4.4c0,0.1,0,0.2,0,0.2
			c0,0,0.1,0,0.1-0.2c0.2-1.5,0.4-3,0.7-4.5c0-0.1-0.1-0.3-0.1-0.3c0,0-0.1,0,0,0C53,4.9,53,4.8,53,5z"/>
		<path class="st0" d="M60.2,12.1c0,0-0.1,0-0.1-0.1c-0.1,0-0.1-0.1-0.1-0.2c0-0.1,0-0.1,0.1-0.1c0.1,0,0.1,0,0.2-0.1
			c0.2-0.2,0.2-0.6-0.1-1.1c-0.2-0.5-0.4-0.9-0.5-1.1c0,0-0.1-0.1-0.2-0.2c-0.1,0-0.1,0-0.2-0.1c0,0-0.1,0-0.1,0
			c-0.1,0.5-0.3,1-0.4,1.5c0,0.2,0.1,0.3,0.1,0.5c0.1,0.1,0.1,0.2,0.2,0.2c0.1,0,0.1,0.1,0.1,0.1c0,0.1-0.1,0.1-0.2,0.1
			c0,0-0.1,0-0.1,0c-0.7-0.2-1.3-0.3-2-0.5c0,0-0.1,0-0.1,0c-0.1,0-0.1-0.1-0.1-0.2c0-0.1,0.1-0.1,0.1-0.1c0.1,0,0.1,0,0.3-0.1
			c0.3-0.2,0.4-0.4,0.5-0.8c0,0,0,0,0,0c0.3-1.3,0.6-2.6,0.9-3.9c0-0.1-0.1-0.3-0.2-0.4C58.1,5.5,58,5.5,58,5.5
			c-0.1,0-0.1-0.2,0-0.2c0,0,0.1,0,0.1,0c1,0.2,2,0.5,3,0.8c0.7,0.2,1.2,0.5,1.4,0.9c0.3,0.5,0.5,1.2,0.1,1.9
			c-0.2,0.4-0.9,0.7-1.4,0.7c-0.1,0-0.2,0-0.4,0c0.4,0.8,0.5,1.4,0.8,2.2c0.1,0.2,0.2,0.3,0.3,0.5c0.1,0.1,0.2,0.2,0.2,0.2
			c0.1,0,0.1,0.1,0.1,0.1c0,0.1,0,0.1-0.1,0.1c0,0-0.1,0-0.1,0c-0.3-0.1-0.6-0.2-0.9-0.3c-0.2-0.1-0.4-0.1-0.6-0.2
			C60.5,12.2,60.3,12.1,60.2,12.1z M58.5,6.1c-0.4,1.5-0.7,3-1.1,4.4c-0.1,0.1-0.1,0.2,0,0.2c0,0,0.1,0,0.1-0.1
			c0.4-1.5,0.7-3,1.1-4.4c0-0.1,0-0.3-0.1-0.3c0,0-0.1,0,0,0C58.5,6,58.5,5.9,58.5,6.1z M59.4,8.5c0.1,0,0.2,0.1,0.3,0.1
			c0.2,0.1,0.6,0.2,0.7,0.2c0.5,0.1,0.9-0.2,1-0.7c0.1-0.6-0.4-1-1.2-1.2c-0.2-0.1-0.4-0.1-0.5-0.1c-0.2,0.6-0.3,1.1-0.5,1.7
			C59.3,8.4,59.4,8.4,59.4,8.5z M59.8,9.6c0.3,0.6,0.5,1.3,0.6,2c0,0.1,0,0.1,0,0.1c0,0.1,0.1-0.1,0.1-0.2c-0.1-0.7-0.3-1.3-0.6-2
			c0-0.1-0.2-0.2-0.3-0.2c-0.1,0-0.1,0,0,0.1C59.7,9.4,59.8,9.5,59.8,9.6z M61.3,8.7c-0.1,0.1-0.2,0.1-0.3,0.1c-0.1,0-0.1,0-0.1,0
			c0,0,0.1,0,0.2,0c0.3,0,0.5-0.3,0.6-0.6c0.1-0.3,0.1-0.7-0.1-0.9c-0.1-0.1-0.2-0.2-0.2-0.2c0,0,0,0,0.1,0.1
			C61.8,7.6,61.7,8.4,61.3,8.7z"/>
		<path class="st0" d="M67.1,8.1c0.1,0,0.2,0.1,0.1,0.2c0,0.1-0.1,0.1-0.1,0c0,0-0.1,0-0.2,0.1c-0.2,0.1-0.3,0.2-0.4,0.3
			c-0.5,1.2-1,2.5-1.5,3.7c-0.1,0.4-0.2,0.6,0,0.9c0,0.1,0.1,0.2,0.2,0.2c0.1,0,0.1,0.1,0.1,0.1c0,0.1-0.1,0.1-0.2,0.1
			c0,0-0.1,0-0.1,0c-0.6-0.3-1.3-0.5-2-0.7c0,0-0.1,0-0.1-0.1c-0.1,0-0.1-0.1-0.1-0.2c0-0.1,0.1-0.1,0.1-0.1c0.1,0,0.1,0,0.3-0.1
			c0.3-0.2,0.5-0.4,0.6-0.7c0.5-1.2,0.9-2.5,1.4-3.7c0-0.1,0-0.3-0.1-0.5c0-0.1-0.1-0.2-0.1-0.2c-0.1,0,0-0.2,0.1-0.2
			c0,0,0.1,0,0.1,0C65.6,7.6,66.3,7.8,67.1,8.1z M65.2,8.1c-0.5,1.4-1.1,2.9-1.6,4.3c-0.1,0.1-0.1,0.2,0,0.2c0,0,0.1,0,0.2-0.1
			c0.5-1.4,1.1-2.9,1.6-4.3c0-0.1,0-0.3-0.1-0.3c0,0-0.1,0-0.1,0C65.2,8,65.2,8,65.2,8.1z"/>
		<path class="st0" d="M69.2,9.3C69.2,9.3,69.2,9.2,69.2,9.3c0-0.2,0.1-0.1,0.2-0.1c0.9,0.4,1.7,0.8,2.6,1.2
			c0.1,0.1,0.2,0.1,0.1,0.2c0,0.1,0,0.1-0.1,0c-0.1-0.1-0.4,0.2-0.5,0.3c0,0.1-0.1,0.1-0.1,0.2c-0.3,1.5-0.6,3-0.9,4.5
			c0,0.1,0,0.3,0.1,0.5c0,0.1,0.1,0.2,0.1,0.2c0.1,0,0,0.2-0.1,0.2c0,0,0,0-0.1,0c-0.1,0-0.2-0.1-0.2-0.1c-0.2-0.1-0.4-0.2-0.7-0.4
			c-0.3-0.2-0.6-0.3-0.9-0.5c-0.1-0.1-0.1-0.1-0.1-0.2c0-0.1,0-0.1,0.1,0c0.1,0.1,0.4-0.2,0.4-0.3c0-0.1,0.1-0.1,0.1-0.2
			c0.1-0.3,0.1-0.6,0.2-0.8c-0.5-0.3-1.1-0.5-1.6-0.8c-0.2,0.2-0.4,0.4-0.5,0.7c-0.1,0.2-0.1,0.3-0.1,0.5c0,0.1,0,0.2,0.1,0.2
			c0,0,0.1,0,0,0.1c-0.1,0.1-0.1,0.1-0.2,0c-0.5-0.2-1-0.5-1.5-0.7c-0.1,0-0.1-0.1-0.1-0.2c0-0.1,0.1-0.1,0.1,0
			c0.1,0.1,0.6-0.2,0.6-0.3c1-1.3,2-2.5,3.1-3.7C69.3,9.7,69.4,9.3,69.2,9.3z M66.2,13.8c0.1,0,0.3-0.1,0.3-0.1c1-1.3,2-2.5,3.1-3.7
			c0,0,0.1-0.3,0.1-0.3c-0.1-0.3-0.1,0.2-0.2,0.2c-1,1.2-2.1,2.4-3,3.7c-0.1,0-0.1,0.1-0.1,0.1C66.3,13.7,66.1,13.8,66.2,13.8z
			 M70,10.7c-0.5,0.6-1,1.2-1.5,1.8c0.4,0.2,0.8,0.4,1.1,0.5C69.8,12.2,69.9,11.4,70,10.7z M70.3,10.7c-0.1,0.8-0.3,1.6-0.4,2.4
			c0,0,0.1,0,0.1,0.1c0.2-0.8,0.3-1.7,0.5-2.5c0-0.1,0-0.3-0.1-0.3c-0.1,0-0.1,0,0,0C70.3,10.5,70.3,10.6,70.3,10.7z M69.7,14.1
			c-0.1,0.3-0.1,0.6-0.2,1c0,0-0.2,0.2-0.2,0.2c0,0.1,0.1,0,0.1,0c0,0,0.2-0.2,0.2-0.2c0.1-0.3,0.1-0.6,0.2-0.9
			C69.7,14.1,69.7,14.1,69.7,14.1z"/>
	</g>
</g>
<path class="st0" d="M68.8,6.5c-0.1,0-0.1-0.1-0.2-0.2c-0.1-0.3-0.2-0.5-0.1-0.7l0-0.1c-0.4,0.1-2.1,1.1-2.3,1c-0.1,0-0.1,0-0.1,0.1
	c0,0.1,0.1,0.1,0.2,0.2h2.3c0.1,0,0.2,0,0.3-0.2C68.9,6.6,68.9,6.5,68.8,6.5z"/>
<g>
	<path class="st0" d="M33.5,45.6c0-0.2,0.1-0.3,0.2-0.5c0.2-0.4,0.6-0.9,1-1.2c0.3-0.2,0.6-0.4,0.9-0.6c0.4-0.2,0.6-0.5,0.8-0.8
		c0.3-0.5,0.2-1.1-0.2-1.4c-0.4-0.3-0.9-0.4-1.4-0.2c-0.3,0.1-0.5,0.4-0.6,0.7c0.1,0,0.2,0,0.3,0c0.2,0.1,0.3,0.5,0.1,0.8
		c-0.1,0.2-0.3,0.3-0.5,0.3c-0.3,0-0.5-0.1-0.6-0.3c-0.4-0.7-0.1-1.4,0.4-1.9c0.4-0.4,0.9-0.6,1.3-0.6c0.5-0.1,0.6,0,1,0.1
		c0.4,0.1,0.7,0.3,1,0.5c0.3,0.3,0.5,0.6,0.6,0.9c0.2,0.6,0,1.4-0.3,1.8c-0.3,0.4-0.6,0.6-1,0.8c-0.5,0.3-1,0.5-1.4,0.8
		c-0.1,0.1-0.3,0.2-0.4,0.3c0.3-0.1,0.5-0.2,0.7-0.2c0.3,0,0.6,0,0.7,0.1c0.1,0.1,0.3,0.1,0.5,0.1c0.3,0,0.5,0,0.5,0
		c0,0,0.1-0.3,0.1-0.5h0.7c0,0.3,0,0.7-0.1,1c-0.1,0.3-0.2,0.7-0.6,0.7c-0.2,0.1-0.3,0.1-0.7,0.1c-0.4-0.1-0.7-0.1-0.8-0.2
		c-0.2-0.2-0.9-0.4-1.4-0.2c-0.2,0-0.3,0.1-0.4,0.3h-0.8C33.4,46.1,33.5,45.9,33.5,45.6z M36.6,42.7c-0.2,0.2-0.3,0.3-0.5,0.5
		c-0.3,0.2-0.5,0.4-0.8,0.6c-0.4,0.3-0.8,0.5-1.1,0.9c-0.2,0.3-0.4,0.5-0.5,1c0,0.1,0,0.2,0,0.2c0,0,0.2-0.5,0.2-0.5
		c0.1-0.1,0.1-0.2,0.2-0.3c0.5-0.8,1.4-1.2,2-1.7c0.3-0.3,0.6-0.5,0.7-0.9c0-0.1,0.1-0.2,0.1-0.3c0,0,0,0,0,0v0
		c0-0.3-0.2-0.7-0.3-0.9c-0.1-0.1-0.2-0.2-0.3-0.2c-0.1-0.1-0.1-0.1-0.1,0c0,0,0.1,0.1,0.2,0.1c0.1,0.1,0.2,0.2,0.3,0.3
		C37,41.9,36.9,42.4,36.6,42.7z"/>
	<path class="st0" d="M43.1,40.8c0.5,0.6,0.8,1.4,0.8,2.3c0,0.9-0.3,1.7-0.8,2.3c-0.5,0.6-1.2,1-1.9,1c-0.8,0-1.4-0.3-1.9-1
		c-0.5-0.6-0.8-1.4-0.8-2.3c0-0.9,0.3-1.7,0.8-2.3c0.5-0.6,1.2-1,1.9-1C41.9,39.8,42.6,40.1,43.1,40.8z M40,40.3
		c-0.1,0-0.2,0.1-0.4,0.3C39.2,41,39,41.3,38.8,42c-0.2,0.8-0.3,1.3,0,2c0.2,0.5,0.4,1.1,0.8,1.4c0.2,0.1,0.3,0.2,0.4,0.3
		c0.1,0.1,0.1,0,0.1-0.1c0,0-0.1-0.1-0.2-0.2c-0.2-0.1-0.3-0.4-0.5-0.6c-0.3-0.4-0.5-1.2-0.6-1.7c-0.1-0.8,0.2-1.5,0.5-2
		c0.1-0.2,0.2-0.3,0.4-0.5C39.9,40.6,40,40.4,40,40.3C40.2,40.2,40.2,40.2,40,40.3z M41.2,40.8c-0.9,0-1.3,1.3-1.3,2.3
		c0,1,0.4,2.3,1.3,2.3c0.4,0,0.7-0.2,0.9-0.7c0.3-0.4,0.4-1,0.4-1.6C42.5,42.1,42,40.8,41.2,40.8z M42,40.9c0.4,0.5,0.7,1.2,0.7,2.2
		c0,0.8-0.2,1.7-0.6,2c-0.1,0.1-0.1,0.2-0.2,0.2c-0.1,0.1-0.1,0.1,0,0.1c0.2-0.1,0.4-0.5,0.5-0.7c0.3-0.6,0.5-1.6,0.3-2.4
		c-0.1-0.5-0.3-0.9-0.5-1.2c-0.1-0.1-0.2-0.2-0.3-0.3c-0.1-0.1-0.1-0.1-0.1,0C41.9,40.8,41.9,40.8,42,40.9z"/>
	<path class="st0" d="M44.7,40.9c0.2,0,0.3,0.1,0.4,0.2c0.1,0,0.2-0.1,0.2-0.2c0.2-0.2,0.2-0.3,0.4-0.6c0.1-0.2,0.1-0.3,0.2-0.3
		c0.1,0,0.2-0.1,0.5-0.2c0.2-0.1,0.4-0.1,0.5-0.1v5.4c0,0.3,0.1,0.7,0.3,0.8c0.1,0.1,0.1,0,0.1,0.1c0,0,0.1,0.2,0,0.2l-2.5,0
		c0,0,0,0,0,0c-0.1,0-0.1,0-0.1-0.1c0-0.1,0-0.1,0.1-0.1c0,0,0.1,0,0.2-0.2c0.2-0.3,0.3-0.5,0.4-0.7c0.1-0.2,0.1-0.4,0.1-0.5v-3.3
		c-0.1,0.1-0.5,0.3-0.7,0.3c-0.3,0-0.4-0.1-0.4-0.4C44.3,41.1,44.5,40.9,44.7,40.9z M45.6,41.2c0-0.1-0.1,0-0.1,0.2v3.8
		c0,0.1,0,0.2,0,0.1c0,0,0.1-0.1,0.1-0.1v-3.8C45.6,41.4,45.6,41.3,45.6,41.2z"/>
	<path class="st0" d="M52.2,39.9c0,0.2,0,0.4-0.1,0.6c-0.1,0.2-0.2,0.5-0.3,0.7c-0.2,0.4-0.4,0.7-0.7,1c-0.2,0.3-0.6,0.7-0.7,1
		c-0.1,0.3-0.2,0.9-0.1,1.2c0,0.2,0.1,0.4,0.2,0.7c0.1,0.2,0.1,0.5-0.1,0.7c-0.2,0.4-0.6,0.6-1.2,0.5c-0.4-0.1-0.7-0.4-0.8-0.8
		c-0.1-0.8,0-1.4,0.3-2c0.4-0.6,0.7-0.9,1.2-1.4c0.2-0.1,0.3-0.3,0.5-0.4c0.1-0.2,0.3-0.4,0.4-0.6c-0.3,0.1-0.6,0.2-0.7,0.2
		c-0.3,0-0.6,0-0.7-0.1c-0.1-0.1-0.3-0.1-0.5-0.1c-0.3,0-0.5,0-0.5,0c0,0-0.1,0.3-0.1,0.5h-0.7c-0.1-0.5,0.1-1.1,0.3-1.5
		c0.1-0.1,0.2-0.2,0.4-0.3c0.2-0.1,0.3-0.1,0.7-0.1c0.4,0.1,0.7,0.1,0.8,0.2c0.2,0.2,1.1,0.4,1.5,0.2c0-0.1,0-0.2,0.1-0.2h0.2
		L52.2,39.9C52.2,39.9,52.2,39.9,52.2,39.9z M48.3,39.9c-0.2,0-0.3,0.3-0.4,0.4c-0.1,0.2-0.2,0.5-0.1,0.7c0,0.1,0,0.2,0,0.1
		c0-0.4,0.1-0.7,0.3-1C48.2,40,48.3,40,48.3,39.9C48.4,39.9,48.4,39.9,48.3,39.9z M51,41.1l-0.1,0.2c-0.2,0.5-0.7,0.9-1.1,1.3
		c-0.5,0.5-0.9,1-1,1.7c-0.1,0.5-0.1,1.3,0.2,1.6c0.1,0.1,0.2,0,0.1,0c-0.2-0.1-0.2-0.5-0.3-0.7c-0.1-0.5,0.1-0.9,0.2-1.3
		c0.3-0.8,0.9-1.2,1.5-1.8C50.7,41.8,50.9,41.6,51,41.1c0.1,0,0.1-0.1,0.1-0.1v0C51.1,40.9,51,41,51,41.1z"/>
</g>
<g>
	<rect x="52.6" y="43.2" class="st0" width="4.4" height="0.3"/>
</g>
<g>
	<rect x="27.2" y="43.4" class="st0" width="4.4" height="0.3"/>
</g>
<path class="st0" d="M47.6,20.3c0.9-2.1,2.2-4.6,3.2-6.3c0.1-0.1,0.1-0.2,0.2-0.3c-0.4-0.2-0.8-0.4-1.3-0.5c0,0.1,0,0.3-0.1,0.4
	c-0.4,1.3-1.5,2.2-2.5,1.9c-1-0.3-3.2-3.5-4.3-3.5c-1,0-3.3,3.2-4.3,3.5c-1,0.3-2.1-0.6-2.5-1.9c0-0.1-0.1-0.3-0.1-0.4
	c-0.4,0.2-0.9,0.3-1.3,0.5c0.1,0.1,0.2,0.2,0.2,0.3c1,1.7,2.3,4.3,3.2,6.3c1.5-0.4,3-0.6,4.7-0.6C44.5,19.8,46.1,19.9,47.6,20.3z"/>
<path class="st0" d="M81.4,20.8c-1.9-2.7-4.6-4.8-7.6-6.1c-0.1-0.1-0.2-0.2-0.1-0.3c0.1-0.1,0.2-0.2,0.3-0.1
	c3.1,1.3,5.8,3.5,7.8,6.2c0.1,0.1,0.1,0.3-0.1,0.3c-0.1,0-0.1,0.1-0.2,0C81.4,20.8,81.4,20.8,81.4,20.8z"/>
<path class="st0" d="M78.8,19.9c-1.6-1.8-3.5-3.1-5.6-4.1c-0.1-0.1-0.2-0.2-0.1-0.3c0.1-0.1,0.2-0.2,0.3-0.1c2.2,1,4.1,2.4,5.7,4.2
	c0.1,0.1,0.1,0.2,0,0.3C79.1,20,79,20,78.9,20C78.9,20,78.8,19.9,78.8,19.9z"/>
<path class="st0" d="M80.5,17.9c-1.7-1.8-3.7-3.2-5.9-4.2c-0.1-0.1-0.2-0.2-0.1-0.3c0.1-0.1,0.2-0.2,0.3-0.1c2.3,1,4.4,2.4,6.1,4.3
	c0.1,0.1,0.1,0.2,0,0.3C80.7,18,80.6,18,80.6,18C80.5,17.9,80.5,17.9,80.5,17.9z"/>
<path class="st0" d="M5.5,20.3c-0.1,0-0.1,0-0.2,0c-0.1-0.1-0.1-0.2-0.1-0.3c2-2.8,4.7-4.9,7.8-6.2c0.1-0.1,0.3,0,0.3,0.1
	c0.1,0.1,0,0.3-0.1,0.3c-3,1.3-5.7,3.4-7.6,6.1C5.6,20.3,5.6,20.3,5.5,20.3z"/>
<path class="st0" d="M8.1,19.5c-0.1,0-0.2,0-0.2-0.1c-0.1-0.1-0.1-0.2,0-0.3c1.6-1.8,3.6-3.2,5.7-4.2c0.1-0.1,0.3,0,0.3,0.1
	c0.1,0.1,0,0.3-0.1,0.3c-2.1,0.9-4,2.3-5.6,4.1C8.2,19.4,8.1,19.5,8.1,19.5z"/>
<path class="st0" d="M6.4,17.5c-0.1,0-0.2,0-0.2-0.1c-0.1-0.1-0.1-0.2,0-0.3c1.7-1.8,3.8-3.3,6.1-4.3c0.1-0.1,0.3,0,0.3,0.1
	c0.1,0.1,0,0.3-0.1,0.3c-2.2,1-4.2,2.4-5.9,4.2C6.5,17.4,6.5,17.4,6.4,17.5z"/>
<g>
	<g>
		<path class="st0" d="M12.9,45.8c0-0.1,0.1-0.3,0.1-0.4c0,0.1,0,0.1,0.1,0.2c0.1,0,0.1,0.1,0.2,0.1c0.1,0,0.1,0,0.2,0
			c0.1,0,0.1-0.1,0.2-0.2c0.3-0.5,0.6-0.9,0.9-1.4c0-0.1,0.1-0.1,0.1-0.2c0-0.1,0-0.1-0.1-0.2c0-0.1-0.1-0.1-0.1-0.1
			c-0.1,0-0.1,0-0.2,0c0.1-0.1,0.3-0.2,0.4-0.3c0.6,0.4,1.1,0.8,1.7,1.1c0,0,0,0,0.1,0.1c0,0,0.1,0.1,0.1,0.2c0,0.1,0.1,0.2,0.1,0.3
			c0,0.1,0.1,0.2,0.1,0.4c0,0.2,0,0.4-0.1,0.6c-0.1,0.2-0.1,0.4-0.3,0.5c-0.1,0.2-0.2,0.3-0.4,0.4c-0.1,0.1-0.3,0.2-0.5,0.2
			c-0.2,0.1-0.3,0.1-0.5,0.1c-0.2,0-0.3,0-0.4-0.1C14.1,46.6,13.5,46.2,12.9,45.8z M15.3,46.6c0.1-0.1,0.2-0.1,0.3-0.2
			c0.1-0.1,0.2-0.2,0.3-0.4c0.1-0.1,0.2-0.3,0.2-0.4c0-0.1,0.1-0.3,0.1-0.4c0-0.1,0-0.3-0.1-0.4c0-0.1-0.1-0.1-0.2-0.2
			c-0.1-0.1-0.2-0.1-0.3-0.1c-0.1,0-0.2,0-0.3,0c-0.1,0-0.1,0-0.2,0.1c-0.3,0.5-0.6,1-0.9,1.4c-0.1,0.1-0.1,0.2,0,0.3
			c0,0.1,0.1,0.2,0.2,0.2c0.1,0.1,0.2,0.1,0.3,0.2c0.1,0,0.2,0.1,0.2,0.1C15,46.7,15.2,46.6,15.3,46.6z"/>
		<path class="st0" d="M17.4,48.1c0.1,0.1,0.1,0.2,0.2,0.2c0.1,0.1,0.2,0.1,0.4,0.2c0.1,0,0.3,0,0.4,0c0.1,0,0.2-0.1,0.3-0.2
			c0.1-0.1,0.1-0.2,0.1-0.4c0.1,0.2,0.2,0.3,0.3,0.5c-0.1,0.3-0.3,0.5-0.4,0.8c-0.8-0.4-1.7-0.9-2.5-1.4c0-0.1,0-0.3,0.1-0.4
			c0,0.1,0.1,0.1,0.1,0.2c0.1,0,0.1,0.1,0.2,0.1c0.1,0,0.1,0,0.2,0c0.1,0,0.1-0.1,0.2-0.2c0.3-0.5,0.6-1,0.9-1.5
			c0-0.1,0.1-0.1,0-0.2c0-0.1,0-0.1-0.1-0.2c0-0.1-0.1-0.1-0.1-0.1c-0.1,0-0.1,0-0.2,0c0.1-0.1,0.2-0.2,0.4-0.3
			c0.8,0.5,1.6,0.9,2.4,1.3c-0.1,0.2-0.2,0.4-0.3,0.6c-0.2,0-0.4,0-0.6,0c0.1-0.1,0.1-0.2,0.1-0.3c0-0.1,0-0.2-0.1-0.3
			c-0.1-0.1-0.1-0.2-0.2-0.2c-0.1-0.1-0.2-0.1-0.3-0.1c-0.1,0-0.2,0-0.3,0c-0.1,0-0.1,0.1-0.2,0.1c-0.1,0.1-0.1,0.2-0.2,0.3
			c0,0.1,0,0.1,0,0.2c0,0.1,0.1,0.1,0.1,0.1c0.1,0,0.1,0,0.2,0c0.1,0,0.1,0,0.1-0.1c0-0.1,0.1-0.2,0.1-0.2c0,0.1,0.1,0.3,0.1,0.4
			c-0.1,0.2-0.3,0.5-0.4,0.7c-0.1,0-0.3,0.1-0.4,0.1c0-0.1,0.1-0.2,0.1-0.2c0-0.1,0-0.1,0-0.2c0-0.1-0.1-0.1-0.1-0.1
			c-0.1,0-0.1,0-0.2,0c-0.1,0-0.1,0-0.1,0.1c-0.1,0.2-0.2,0.3-0.3,0.5C17.3,47.9,17.3,48,17.4,48.1z"/>
		<path class="st0" d="M22,48.4c0,0.1,0.1,0.1,0.2,0.2c0.2,0.1,0.3,0.2,0.4,0.3c0.1,0.1,0.3,0.2,0.4,0.2c0.1,0.1,0.2,0.2,0.2,0.3
			c0.1,0.1,0.1,0.3,0.1,0.5c0,0.2-0.1,0.4-0.1,0.6c-0.1,0.2-0.2,0.3-0.4,0.3c-0.2,0.1-0.3,0.1-0.5,0c-0.2,0-0.4-0.1-0.6-0.3
			c-0.1,0-0.1-0.1-0.2-0.2c-0.1-0.1-0.1-0.1-0.2-0.2c-0.1,0-0.1-0.1-0.2-0.1c-0.1,0-0.1,0-0.1,0.1c-0.1-0.1-0.1-0.2-0.2-0.3
			c0.1-0.2,0.2-0.4,0.3-0.7c0.1,0,0.3,0,0.4,0c-0.1,0.1-0.1,0.2-0.1,0.3c0,0.1,0,0.2,0.1,0.3c0,0.1,0.1,0.2,0.2,0.2
			c0.1,0.1,0.2,0.1,0.3,0.2c0.1,0,0.2,0.1,0.3,0.1c0.1,0,0.2,0,0.3,0c0.1,0,0.1,0,0.2-0.1c0.1,0,0.1-0.1,0.1-0.1c0-0.1,0-0.1,0-0.2
			c0-0.1,0-0.1-0.1-0.2c-0.1-0.1-0.2-0.2-0.3-0.3c-0.1-0.1-0.2-0.2-0.4-0.3c-0.1-0.1-0.2-0.2-0.3-0.3c-0.1-0.1-0.2-0.2-0.2-0.3
			c0-0.1-0.1-0.2,0-0.3c0-0.1,0-0.2,0.1-0.3c0-0.1,0.1-0.2,0.1-0.2c0.1-0.1,0.1-0.1,0.2-0.2c0.1-0.1,0.3-0.1,0.5-0.2
			c0.2,0,0.3,0,0.4,0c0.1,0,0.3,0.1,0.4,0.2c0.1,0.1,0.2,0.2,0.3,0.4c0.1,0,0.1-0.1,0.2-0.1c0.1,0.1,0.2,0.2,0.2,0.3
			c-0.1,0.2-0.2,0.4-0.2,0.6c-0.1,0-0.3,0-0.4,0.1c0.1-0.1,0.1-0.2,0-0.4c0-0.1-0.1-0.2-0.2-0.3c-0.1-0.1-0.2-0.2-0.3-0.3
			c-0.1-0.1-0.2-0.1-0.3-0.1c-0.1,0-0.2,0-0.3,0c-0.1,0-0.2,0.1-0.2,0.2C22,48.3,22,48.3,22,48.4z"/>
		<path class="st0" d="M23.1,50.9c0,0.1,0.1,0.2,0.2,0.2c0.1,0,0.2-0.1,0.4-0.2c0.4-0.5,0.9-1,1.3-1.5c0.1-0.1,0.1-0.1,0.1-0.2
			c0-0.1,0-0.1-0.1-0.1c0,0-0.1-0.1-0.1-0.1c-0.1,0-0.1,0-0.2,0c0.1-0.1,0.2-0.2,0.3-0.4c0.5,0.2,1.1,0.4,1.6,0.6c0,0.2,0,0.3,0,0.5
			c0,0-0.1-0.1-0.1-0.1c-0.1,0-0.1-0.1-0.2-0.1c-0.1,0-0.1,0-0.1,0c0,0-0.1,0.1-0.1,0.2c0,0.7,0,1.3,0,2c0,0.1,0,0.2,0,0.2
			c0,0.1,0.1,0.1,0.1,0.1c0,0,0.1,0.1,0.2,0.1c0.1,0,0.1,0,0.2,0c-0.1,0.1-0.2,0.2-0.2,0.3c-0.5-0.2-1-0.3-1.5-0.5
			c0-0.1,0-0.3,0-0.4c0,0.1,0.1,0.1,0.1,0.1c0.1,0,0.1,0,0.2,0c0.1,0,0.1,0,0.1-0.1c0,0,0.1-0.1,0.1-0.2c0-0.1,0-0.2,0-0.4
			c-0.3-0.1-0.7-0.3-1-0.4c-0.1,0.1-0.2,0.2-0.2,0.3C24,51.1,24,51.1,24,51.2c0,0.1,0,0.1,0.1,0.1c0,0,0.1,0.1,0.1,0.1
			c0.1,0,0.1,0,0.2,0c-0.1,0.1-0.2,0.2-0.3,0.3c-0.3-0.1-0.7-0.3-1-0.4C23.1,51.1,23.1,51,23.1,50.9z M25.3,49.5
			c-0.3,0.3-0.5,0.6-0.8,0.9c0.3,0.1,0.5,0.2,0.8,0.3C25.3,50.3,25.3,49.9,25.3,49.5z"/>
		<path class="st0" d="M26.7,52.2c0,0.1,0.1,0.1,0.1,0.1c0.1,0,0.1,0,0.2,0c0.1,0,0.1,0,0.2-0.1c0.1,0,0.1-0.1,0.1-0.2
			c0.2-0.6,0.4-1.1,0.5-1.7c0-0.1,0-0.1,0-0.2c0-0.1-0.1-0.1-0.1-0.1c-0.1,0-0.1-0.1-0.2-0.1c-0.1,0-0.1,0-0.2,0
			c0.1-0.1,0.2-0.2,0.3-0.4c0.3,0.1,0.7,0.2,1,0.3c0.2,0.8,0.4,1.7,0.7,2.5c0.1-0.5,0.3-1,0.4-1.5c0-0.1,0-0.1,0-0.2
			c0-0.1-0.1-0.1-0.1-0.1c-0.1,0-0.1-0.1-0.2-0.1c-0.1,0-0.1,0-0.2,0c0.1-0.1,0.2-0.3,0.3-0.4c0.4,0.1,0.7,0.2,1.1,0.3
			c0,0.2,0,0.3,0,0.5c0,0-0.1-0.1-0.1-0.1c-0.1,0-0.1,0-0.2,0c-0.1,0-0.1,0-0.2,0.1c-0.1,0-0.1,0.1-0.1,0.2
			c-0.2,0.8-0.4,1.6-0.6,2.3c-0.2-0.1-0.4-0.1-0.6-0.2c-0.3-0.9-0.5-1.8-0.8-2.7c-0.2,0.6-0.3,1.1-0.5,1.7c0,0.1,0,0.2,0,0.2
			c0,0.1,0.1,0.1,0.1,0.2c0.1,0,0.1,0.1,0.2,0.1c0.1,0,0.1,0,0.2,0c-0.1,0.1-0.2,0.2-0.2,0.3c-0.4-0.1-0.8-0.2-1.2-0.4
			C26.7,52.4,26.7,52.3,26.7,52.2z"/>
		<path class="st0" d="M32.5,53.4c-0.1-0.3-0.1-0.5,0-0.8c0.1-0.3,0.2-0.5,0.4-0.7c0.2-0.2,0.4-0.4,0.7-0.5c0.1,0,0.2-0.1,0.3-0.1
			c0.1,0,0.2,0,0.4,0c0.1,0,0.2,0.1,0.4,0.1c0.1,0.1,0.2,0.1,0.3,0.2c0.1-0.1,0.1-0.1,0.2-0.2c0.1,0.1,0.2,0.1,0.3,0.2
			c0,0.3-0.1,0.5-0.1,0.8c-0.1,0-0.2,0.1-0.4,0.1c0-0.1,0-0.2,0-0.3c0-0.1-0.1-0.2-0.1-0.3c-0.1-0.1-0.1-0.1-0.2-0.2
			c-0.1-0.1-0.2-0.1-0.3-0.1c-0.1,0-0.2,0-0.3,0c-0.1,0-0.2,0.1-0.3,0.1c-0.1,0.1-0.2,0.2-0.3,0.3c-0.1,0.1-0.1,0.2-0.2,0.3
			c0,0.1-0.1,0.3-0.1,0.4c0,0.1,0,0.3,0,0.4c0,0.1,0,0.2,0.1,0.4c0,0.1,0.1,0.2,0.2,0.3c0.1,0,0.1,0.1,0.2,0.1c0.1,0,0.2,0,0.2,0.1
			c0.1,0,0.2,0,0.2,0c0.1,0,0.1-0.1,0.2-0.1c0-0.1,0.1-0.1,0.1-0.2c0-0.1,0-0.1,0-0.2c0-0.1-0.1-0.1-0.2-0.1c-0.1,0-0.2,0-0.3,0
			c0.1-0.1,0.1-0.2,0.2-0.3c0.4,0.1,0.7,0.1,1.1,0.2c0,0.1,0.1,0.3,0.1,0.4c-0.1-0.1-0.1-0.1-0.2-0.1c-0.1,0-0.1,0-0.2,0
			c-0.1,0-0.1,0.1-0.1,0.2c0,0.1-0.1,0.1-0.1,0.2c0,0.1,0,0.2,0,0.3c0,0.1,0.1,0.2,0.2,0.3c-0.1,0-0.2,0-0.3,0.1
			c0-0.1-0.1-0.2-0.1-0.3c-0.1,0.1-0.2,0.1-0.4,0.1c-0.1,0-0.3,0-0.4,0c-0.1,0-0.3-0.1-0.4-0.1c-0.1-0.1-0.2-0.1-0.3-0.2
			C32.8,53.9,32.6,53.6,32.5,53.4z"/>
		<path class="st0" d="M35.2,54.2c0.1,0.1,0.2,0.1,0.3,0.1c0.1,0,0.2-0.1,0.3-0.3c0.3-0.6,0.6-1.1,0.9-1.7c0-0.1,0-0.1,0-0.2
			c0,0-0.1-0.1-0.1-0.1c0,0-0.1,0-0.2,0c-0.1,0-0.1,0-0.2,0c0.1-0.1,0.1-0.3,0.2-0.4c0.6,0.1,1.1,0.1,1.7,0.2c0,0.2,0.1,0.3,0.1,0.5
			c0,0-0.1-0.1-0.1-0.1c-0.1,0-0.1,0-0.2,0c-0.1,0-0.1,0-0.1,0.1c0,0,0,0.1,0,0.2c0.1,0.6,0.3,1.3,0.5,1.9c0,0.1,0,0.2,0.1,0.2
			c0,0.1,0.1,0.1,0.1,0.1c0.1,0,0.1,0,0.2,0c0.1,0,0.1,0,0.2-0.1c-0.1,0.1-0.1,0.2-0.2,0.4c-0.5,0-1-0.1-1.5-0.2
			c0-0.1-0.1-0.3-0.1-0.4c0,0,0.1,0.1,0.1,0.1c0.1,0,0.1,0,0.2,0c0.1,0,0.1,0,0.1-0.1c0,0,0-0.1,0-0.2c0-0.1-0.1-0.2-0.1-0.4
			c-0.4,0-0.7-0.1-1.1-0.1c-0.1,0.1-0.1,0.2-0.2,0.3c0,0.1-0.1,0.1,0,0.2c0,0.1,0,0.1,0.1,0.1c0,0,0.1,0,0.2,0c0.1,0,0.1,0,0.2-0.1
			c-0.1,0.1-0.1,0.2-0.2,0.3c-0.4,0-0.7-0.1-1.1-0.2C35.2,54.5,35.2,54.3,35.2,54.2z M37,52.4c-0.2,0.4-0.4,0.7-0.5,1.1
			c0.3,0,0.5,0.1,0.8,0.1C37.2,53.2,37.1,52.8,37,52.4z"/>
		<path class="st0" d="M38.9,54.7c0,0,0.1,0.1,0.2,0.1c0.1,0,0.1,0,0.2,0c0.1,0,0.1-0.1,0.2-0.1c0-0.1,0.1-0.1,0.1-0.2
			c0-0.6,0.1-1.1,0.1-1.7c0-0.1,0-0.1,0-0.2c0-0.1-0.1-0.1-0.1-0.1c-0.1,0-0.1,0-0.2,0c-0.1,0-0.1,0-0.2,0c0.1-0.1,0.1-0.3,0.2-0.4
			c0.7,0.1,1.4,0.1,2.1,0.1c0.1,0,0.2,0,0.3,0.1c0.1,0.1,0.2,0.2,0.2,0.3c0.1,0.1,0.1,0.2,0.1,0.3c0,0.1,0,0.2,0,0.4
			c0,0.1-0.1,0.2-0.2,0.3c-0.1,0.1-0.2,0.1-0.3,0.2c0.1,0.1,0.2,0.1,0.3,0.2c0.1,0.1,0.1,0.2,0.1,0.3c0,0.1,0,0.2,0,0.3
			c0,0.1-0.1,0.2-0.1,0.3c-0.1,0.1-0.2,0.2-0.3,0.2c-0.1,0.1-0.2,0.1-0.4,0.1c-0.7,0-1.5-0.1-2.2-0.1C39,54.9,38.9,54.8,38.9,54.7z
			 M41.2,53.4c0.1,0,0.1-0.1,0.1-0.2c0-0.1,0-0.1,0-0.2c0-0.1,0-0.2-0.1-0.2c-0.1-0.1-0.2-0.2-0.3-0.2c-0.1,0-0.2-0.1-0.3,0
			c-0.1,0-0.2,0-0.3,0.1c-0.1,0.1-0.1,0.1-0.1,0.2c0,0.2,0,0.4,0,0.6c0.2,0,0.5,0,0.7,0C41.1,53.4,41.1,53.4,41.2,53.4z M40.2,53.8
			c0,0.2,0,0.4,0,0.7c0,0.1,0,0.2,0.1,0.2c0.1,0.1,0.2,0.1,0.3,0.1c0.1,0,0.2,0,0.3,0c0.1,0,0.2,0,0.2-0.1c0.1-0.1,0.2-0.1,0.2-0.3
			c0-0.1,0-0.2,0-0.3c0-0.1-0.1-0.2-0.1-0.3c-0.1-0.1-0.1-0.1-0.2-0.1C40.7,53.8,40.5,53.8,40.2,53.8z"/>
		<path class="st0" d="M44.8,52.2c0.1,0.1,0.2,0.2,0.2,0.3c0.1,0.1,0.1,0.2,0.1,0.4c0,0.1,0,0.3,0,0.4c0,0.1-0.1,0.2-0.1,0.3
			c-0.1,0.1-0.2,0.2-0.3,0.2c0.1,0,0.2,0.1,0.2,0.1c0,0,0.1,0.1,0.1,0.1c0,0.1,0,0.1,0,0.2c0,0.1,0,0.2,0,0.4c0,0.1,0,0.2,0.1,0.2
			c0,0,0.1,0.1,0.1,0.1c0.1,0,0.1,0,0.2,0c0.1,0,0.1-0.1,0.1-0.1c0,0.1-0.1,0.2-0.1,0.4c-0.1,0-0.2,0.1-0.3,0.1c-0.1,0-0.2,0-0.3,0
			c-0.1,0-0.2-0.1-0.3-0.1c-0.1-0.1-0.1-0.1-0.1-0.2c0-0.2,0-0.4,0-0.6c0-0.1,0-0.2,0-0.2c0-0.1,0-0.1-0.1-0.1c0,0-0.1,0-0.1,0
			c0,0-0.1,0-0.1,0c-0.3,0-0.5,0-0.8,0c0,0.3,0,0.5,0,0.8c0,0.1,0,0.1,0.1,0.2c0,0,0.1,0.1,0.2,0.1c0.1,0,0.1,0,0.2,0
			c0.1,0,0.1,0,0.2-0.1c0,0.1-0.1,0.2-0.1,0.4c-0.5,0-1,0-1.6,0c0-0.1-0.1-0.2-0.1-0.4c0,0,0.1,0.1,0.2,0.1c0.1,0,0.1,0,0.2,0
			c0.1,0,0.1,0,0.2-0.1c0,0,0.1-0.1,0.1-0.2c0-0.6,0-1.2,0-1.8c0-0.1,0-0.1-0.1-0.2c0-0.1-0.1-0.1-0.1-0.1c-0.1,0-0.1,0-0.2,0
			c-0.1,0-0.1,0-0.2,0.1c0.1-0.1,0.1-0.3,0.2-0.4c0.7,0,1.4,0,2,0C44.6,52.1,44.7,52.2,44.8,52.2z M44.2,53.5c0.1,0,0.1,0,0.2-0.1
			c0.1,0,0.1-0.1,0.1-0.1c0-0.1,0-0.1,0-0.2c0-0.1,0-0.1,0-0.2c0-0.1-0.1-0.1-0.1-0.2c-0.1-0.1-0.1-0.1-0.2-0.1c-0.1,0-0.1,0-0.2,0
			c-0.1,0-0.2,0-0.2,0c-0.1,0-0.1,0.1-0.2,0.1c-0.1,0.1-0.1,0.1-0.1,0.2c0,0.2,0,0.4,0,0.7C43.7,53.5,43.9,53.5,44.2,53.5z"/>
		<path class="st0" d="M45.9,55.2c-0.1-0.1-0.1-0.2-0.1-0.4c0,0,0.1,0.1,0.2,0.1c0.1,0,0.1,0,0.2,0c0.1,0,0.1-0.1,0.2-0.1
			c0-0.1,0.1-0.1,0.1-0.2c0-0.6-0.1-1.2-0.1-1.8c0-0.1,0-0.1-0.1-0.2c0,0-0.1-0.1-0.2-0.1c-0.1,0-0.1,0-0.2,0c-0.1,0-0.1,0-0.1,0.1
			c0-0.1,0.1-0.3,0.1-0.4c0.5,0,0.9,0,1.4-0.1c0.1,0.1,0.1,0.3,0.2,0.4c0,0-0.1,0-0.2-0.1c-0.1,0-0.1,0-0.2,0
			c-0.1,0-0.1,0.1-0.1,0.1c0,0.1-0.1,0.1-0.1,0.2c0,0.6,0.1,1.2,0.1,1.8c0,0.1,0,0.2,0.1,0.2c0,0,0.1,0.1,0.2,0.1c0.1,0,0.1,0,0.2,0
			c0.1,0,0.1,0,0.2-0.1c0,0.1-0.1,0.2-0.1,0.4C47,55.1,46.5,55.2,45.9,55.2z"/>
		<path class="st0" d="M49.1,54.6c0.1,0,0.2,0.1,0.3,0.1c0.1,0,0.2,0,0.4-0.1c0.1,0,0.2-0.1,0.3-0.2c0.1-0.1,0.1-0.2,0.1-0.3
			c0-0.1-0.1-0.3-0.2-0.4c0.2,0.1,0.3,0.2,0.5,0.2c0,0.3,0.1,0.6,0.1,0.9c-0.9,0.1-1.9,0.2-2.8,0.3c-0.1-0.1-0.1-0.2-0.2-0.4
			c0,0,0.1,0.1,0.2,0.1c0.1,0,0.1,0,0.2,0c0.1,0,0.1-0.1,0.1-0.1c0-0.1,0.1-0.1,0-0.2c-0.1-0.6-0.1-1.2-0.2-1.7c0-0.1,0-0.2-0.1-0.2
			c0-0.1-0.1-0.1-0.2-0.1c-0.1,0-0.1,0-0.2,0c-0.1,0-0.1,0-0.1,0.1c0-0.2,0.1-0.3,0.1-0.5c0.9-0.1,1.7-0.2,2.6-0.3
			c0,0.2,0.1,0.5,0.1,0.7c-0.1,0.1-0.3,0.2-0.4,0.4c0-0.1,0-0.3-0.1-0.3c-0.1-0.1-0.1-0.2-0.2-0.2c-0.1,0-0.2-0.1-0.3-0.1
			c-0.1,0-0.2,0-0.3,0c-0.1,0-0.2,0.1-0.2,0.1c-0.1,0.1-0.1,0.1-0.1,0.2c0,0.1,0,0.3,0,0.4c0,0.1,0,0.1,0.1,0.2c0.1,0,0.1,0,0.2,0
			c0.1,0,0.1,0,0.1-0.1c0,0,0.1-0.1,0.1-0.2c0-0.1,0-0.2,0-0.3c0.1,0.1,0.2,0.2,0.3,0.2c0,0.3,0.1,0.5,0.1,0.8
			c-0.1,0.1-0.2,0.2-0.3,0.3c0-0.1,0-0.2,0-0.3c0-0.1,0-0.1-0.1-0.1c-0.1,0-0.1,0-0.2,0c-0.1,0-0.1,0-0.1,0.1c0,0-0.1,0.1-0.1,0.2
			c0,0.2,0,0.4,0.1,0.6C49,54.5,49,54.5,49.1,54.6z"/>
		<path class="st0" d="M50.8,54.4c0,0,0.1,0,0.2,0c0.1,0,0.1,0,0.2,0c0.1,0,0.1-0.1,0.1-0.1c0-0.1,0-0.1,0-0.2
			c-0.1-0.6-0.2-1.2-0.2-1.7c0-0.1,0-0.1-0.1-0.2c0,0-0.1-0.1-0.2-0.1c-0.1,0-0.1,0-0.2,0c-0.1,0-0.1,0-0.1,0.1
			c0-0.2,0.1-0.3,0.1-0.5c0.5-0.1,0.9-0.1,1.4-0.2c0.1,0.1,0.2,0.3,0.2,0.4c0,0-0.1,0-0.2,0c-0.1,0-0.1,0-0.2,0
			c-0.1,0-0.1,0.1-0.1,0.1c0,0.1,0,0.1,0,0.2c0.1,0.6,0.2,1.2,0.3,1.7c0,0.1,0.1,0.2,0.1,0.2c0.1,0,0.2,0.1,0.3,0.1
			c0.1,0,0.2,0,0.3-0.1c0.1-0.1,0.2-0.1,0.2-0.2c0.1-0.1,0.1-0.2,0.1-0.3c0-0.1-0.1-0.2-0.2-0.4c0.2,0.1,0.3,0.1,0.5,0.2
			c0.1,0.3,0.1,0.6,0.2,0.9c-0.8,0.2-1.7,0.3-2.5,0.4C51,54.6,50.9,54.5,50.8,54.4z"/>
		<path class="st0" d="M56.1,53.8c-0.1,0-0.2-0.1-0.3-0.2c-0.1-0.1-0.2-0.2-0.2-0.3c-0.1-0.1-0.1-0.2-0.1-0.3c0-0.1,0-0.2,0.1-0.3
			c0.1-0.1,0.2-0.1,0.3-0.2c0.1,0,0.1,0,0.2,0c0.1,0,0.1,0,0.2,0.1c0,0,0.1,0.1,0.1,0.1c0,0,0,0.1,0,0.2c0,0,0,0.1,0,0.1
			c0,0,0,0.1-0.1,0.1c0,0,0,0.1-0.1,0.1c0,0,0,0.1,0,0.1c0,0.1,0.1,0.1,0.1,0.1c0.1,0,0.2,0,0.3-0.1c0.1,0,0.2-0.1,0.2-0.2
			c0.1-0.1,0.1-0.1,0.1-0.2c-0.1-0.6-0.3-1.2-0.4-1.8c0-0.1-0.1-0.1-0.1-0.2c-0.1,0-0.1-0.1-0.2-0.1c-0.1,0-0.1,0-0.2,0
			c-0.1,0-0.1,0.1-0.1,0.1c0-0.2,0-0.3,0-0.5c0.5-0.1,0.9-0.2,1.4-0.4c0.1,0.1,0.2,0.3,0.3,0.4c0,0-0.1,0-0.2,0
			c-0.1,0-0.1,0-0.2,0.1c-0.1,0-0.1,0.1-0.1,0.1c0,0.1,0,0.1,0,0.2c0.2,0.6,0.3,1.2,0.5,1.8c0,0.1,0,0.2,0,0.3
			c-0.1,0.1-0.1,0.2-0.3,0.3c-0.1,0.1-0.2,0.2-0.4,0.2c-0.1,0.1-0.3,0.1-0.4,0.1C56.3,53.9,56.2,53.8,56.1,53.8z"/>
		<path class="st0" d="M58.2,52.9c0.1,0.1,0.2,0.1,0.3,0c0.1-0.1,0.1-0.2,0.2-0.4c0-0.7,0.1-1.3,0.1-2c0-0.1,0-0.1-0.1-0.2
			c0,0-0.1-0.1-0.1-0.1c-0.1,0-0.1,0-0.2,0c-0.1,0-0.1,0.1-0.1,0.1c0-0.2,0-0.3,0-0.5c0.5-0.2,1.1-0.3,1.6-0.5
			c0.1,0.1,0.2,0.2,0.3,0.4c0,0-0.1,0-0.2,0c-0.1,0-0.1,0-0.2,0.1c0,0-0.1,0.1-0.1,0.1c0,0.1,0,0.1,0.1,0.2c0.4,0.5,0.8,1,1.2,1.5
			c0.1,0.1,0.1,0.1,0.2,0.2c0.1,0,0.1,0,0.2,0c0.1,0,0.1,0,0.2,0c0,0,0.1-0.1,0.1-0.1c0,0.1,0,0.3,0,0.4c-0.5,0.2-1,0.3-1.5,0.5
			c-0.1-0.1-0.2-0.2-0.2-0.3c0,0,0.1,0,0.2,0c0.1,0,0.1,0,0.2-0.1c0,0,0.1-0.1,0.1-0.1c0-0.1,0-0.1-0.1-0.2
			c-0.1-0.1-0.2-0.2-0.2-0.3c-0.3,0.1-0.7,0.2-1,0.3c0,0.1,0,0.2,0,0.4c0,0.1,0,0.2,0,0.2c0,0,0.1,0.1,0.1,0.1c0.1,0,0.1,0,0.2,0
			c0.1,0,0.1-0.1,0.1-0.1c0,0.1,0,0.3,0,0.4c-0.3,0.1-0.7,0.2-1,0.3C58.4,53.1,58.3,53,58.2,52.9z M59.2,50.5c0,0.4,0,0.8-0.1,1.2
			c0.3-0.1,0.5-0.2,0.8-0.2C59.6,51.1,59.4,50.8,59.2,50.5z"/>
		<path class="st0" d="M61.8,51.8c0.1,0,0.1,0,0.2,0c0.1,0,0.1,0,0.2-0.1c0.1,0,0.1-0.1,0.1-0.2c0-0.1,0-0.1,0-0.2
			c-0.2-0.5-0.4-1.1-0.6-1.6c0-0.1-0.1-0.1-0.1-0.2c-0.1,0-0.1,0-0.2,0c-0.1,0-0.1,0-0.2,0c-0.1,0-0.1,0.1-0.1,0.1
			c0-0.2,0-0.3,0-0.5c0.5-0.2,0.9-0.3,1.3-0.5c0.1,0.1,0.2,0.2,0.3,0.4c-0.1,0-0.1,0-0.2,0c-0.1,0-0.1,0-0.2,0.1
			c0,0-0.1,0.1-0.1,0.2c0,0.1,0,0.1,0,0.2c0.2,0.5,0.4,1.1,0.6,1.6c0,0.1,0.1,0.1,0.2,0.2c0.1,0,0.2,0,0.3,0c0.1,0,0.2-0.1,0.3-0.1
			c0.1-0.1,0.2-0.2,0.2-0.3c0-0.1,0-0.2,0-0.3c0-0.1-0.1-0.2-0.3-0.3c0.2,0,0.4,0.1,0.5,0.1c0.1,0.3,0.2,0.6,0.4,0.9
			c-0.8,0.3-1.6,0.6-2.4,0.9C62,52,61.9,51.9,61.8,51.8z"/>
		<path class="st0" d="M64.8,51c-0.1-0.1-0.2-0.2-0.3-0.3c0.1,0,0.1,0,0.2,0c0.1,0,0.1,0,0.2-0.1c0.1,0,0.1-0.1,0.1-0.2
			c0-0.1,0-0.1,0-0.2c-0.2-0.5-0.5-1.1-0.7-1.6c0-0.1-0.1-0.1-0.1-0.2c-0.1,0-0.1,0-0.2,0c-0.1,0-0.1,0-0.2,0.1
			c-0.1,0-0.1,0.1-0.1,0.1c0-0.2,0-0.3,0-0.5c0.4-0.2,0.9-0.4,1.3-0.6c0.1,0.1,0.2,0.2,0.3,0.3c-0.1,0-0.1,0-0.2,0
			C65.1,47.9,65,48,65,48c0,0-0.1,0.1-0.1,0.2c0,0.1,0,0.1,0,0.2c0.2,0.5,0.5,1.1,0.7,1.6c0,0.1,0.1,0.1,0.1,0.2c0.1,0,0.1,0,0.2,0
			c0.1,0,0.1,0,0.2-0.1c0.1,0,0.1-0.1,0.1-0.1c0,0.1,0,0.3,0,0.4C65.8,50.6,65.3,50.8,64.8,51z"/>
		<path class="st0" d="M66.2,48c0.1,0,0.2,0,0.3,0c0.2,0,0.3-0.1,0.5-0.2c0.1-0.1,0.3-0.1,0.4-0.1c0.1,0,0.3,0,0.4,0
			c0.1,0,0.3,0.1,0.5,0.3c0.2,0.2,0.3,0.3,0.3,0.5c0.1,0.2,0,0.3,0,0.5c-0.1,0.2-0.2,0.3-0.3,0.4c-0.2,0.1-0.4,0.2-0.6,0.3
			c-0.1,0-0.2,0-0.3,0c-0.1,0-0.2,0-0.3,0c-0.1,0-0.1,0.1-0.2,0.1c0,0,0,0.1,0,0.2c-0.1,0-0.2-0.1-0.4-0.1c-0.1-0.2-0.2-0.4-0.3-0.7
			c0.1-0.1,0.2-0.2,0.3-0.3c0,0.1,0.1,0.2,0.2,0.3c0.1,0.1,0.2,0.1,0.3,0.2c0.1,0,0.2,0,0.3,0c0.1,0,0.2,0,0.3-0.1
			c0.1,0,0.2-0.1,0.3-0.2c0.1-0.1,0.2-0.2,0.2-0.2c0-0.1,0.1-0.1,0.1-0.2c0-0.1,0-0.1,0-0.2c0-0.1-0.1-0.1-0.1-0.1
			c-0.1,0-0.1-0.1-0.2-0.1c-0.2,0-0.3,0-0.5,0c-0.2,0-0.3,0.1-0.5,0.1c-0.1,0-0.3,0-0.4,0.1c-0.1,0-0.2,0-0.4,0
			c-0.1,0-0.2-0.1-0.2-0.1c-0.1-0.1-0.1-0.1-0.2-0.2c0-0.1-0.1-0.2-0.1-0.3c0-0.1,0-0.2,0-0.3c0-0.2,0.1-0.3,0.2-0.4
			c0.1-0.1,0.2-0.2,0.3-0.3c0.1-0.1,0.3-0.1,0.4-0.2c0.2,0,0.3,0,0.5,0c0-0.1,0-0.1,0-0.2c0.1,0,0.2,0,0.4,0
			c0.1,0.2,0.2,0.4,0.3,0.6c-0.1,0.1-0.1,0.2-0.2,0.3c-0.1-0.1-0.1-0.2-0.3-0.3c-0.1-0.1-0.2-0.1-0.4-0.1c-0.1,0-0.3,0-0.4,0.1
			c-0.1,0-0.2,0.1-0.3,0.2c-0.1,0.1-0.2,0.1-0.2,0.2c0,0.1,0,0.2,0,0.3C66.1,47.9,66.1,48,66.2,48z"/>
		<path class="st0" d="M71,46.7c0.1,0.2,0.1,0.3,0.2,0.5c0,0.2,0,0.3-0.1,0.5c-0.1,0.1-0.2,0.3-0.3,0.4c-0.1,0.1-0.3,0.2-0.4,0.3
			c-0.2,0.1-0.3,0.1-0.5,0.1c-0.2,0-0.3,0-0.5,0c-0.2-0.1-0.4-0.2-0.6-0.4c-0.2-0.2-0.3-0.4-0.4-0.6c-0.1-0.2-0.1-0.5-0.1-0.7
			c0-0.3,0.1-0.5,0.2-0.8c0.1-0.1,0.1-0.2,0.2-0.3c0.1-0.1,0.2-0.2,0.3-0.2c0.1-0.1,0.2-0.1,0.4-0.1c0.1,0,0.3,0,0.4,0
			c0-0.1,0-0.1,0-0.2c0.1,0,0.2,0,0.4,0c0.1,0.2,0.2,0.4,0.4,0.6c-0.1,0.1-0.1,0.2-0.2,0.4c0-0.1-0.1-0.1-0.2-0.2
			c-0.1-0.1-0.2-0.1-0.3-0.1c-0.1,0-0.2,0-0.3,0c-0.1,0-0.2,0-0.3,0.1c-0.1,0.1-0.2,0.2-0.3,0.3c-0.1,0.1-0.1,0.2-0.1,0.4
			c0,0.1,0,0.3,0.1,0.4c0,0.1,0.1,0.3,0.2,0.4c0.1,0.1,0.2,0.3,0.3,0.4c0.1,0.1,0.2,0.2,0.4,0.2C69.8,48,70,48,70.1,48
			c0.1,0,0.3-0.1,0.4-0.1c0.1-0.1,0.1-0.1,0.2-0.2c0-0.1,0.1-0.2,0.1-0.2c0-0.1,0-0.2,0-0.3c0-0.1-0.1-0.2-0.2-0.4
			C70.8,46.8,70.9,46.8,71,46.7z"/>
		<path class="st0" d="M73.3,46.6c-0.2,0.1-0.4,0.2-0.5,0.3c-0.2,0-0.4,0.1-0.6,0c-0.2,0-0.4-0.1-0.5-0.2c-0.2-0.1-0.3-0.2-0.5-0.3
			c-0.1-0.1-0.2-0.3-0.3-0.5c-0.1-0.2-0.1-0.4-0.1-0.6c0-0.2,0-0.4,0.1-0.7c0.1-0.2,0.2-0.3,0.3-0.4c0.1-0.1,0.3-0.2,0.4-0.3
			c0.2-0.1,0.3-0.1,0.5-0.1c0.2,0,0.4,0,0.6,0c0.2,0.1,0.4,0.2,0.6,0.3c0.2,0.2,0.3,0.3,0.4,0.5c0.1,0.2,0.2,0.4,0.2,0.7
			c0,0.3-0.1,0.5-0.2,0.7C73.6,46.4,73.5,46.5,73.3,46.6z M71.4,44.6c-0.1,0.1-0.1,0.2-0.1,0.4c0,0.1,0,0.3,0.1,0.4
			c0,0.1,0.1,0.3,0.2,0.4c0.1,0.1,0.2,0.2,0.3,0.4c0.1,0.1,0.2,0.2,0.4,0.3c0.1,0.1,0.3,0.1,0.4,0.1c0.1,0,0.3,0,0.4-0.1
			c0.1-0.1,0.2-0.2,0.3-0.3c0.1-0.1,0.1-0.2,0.1-0.4c0-0.1,0-0.3-0.1-0.4c0-0.1-0.1-0.3-0.2-0.4c-0.1-0.1-0.2-0.3-0.3-0.4
			c-0.1-0.1-0.2-0.2-0.4-0.2c-0.1-0.1-0.3-0.1-0.4-0.1c-0.1,0-0.3,0-0.4,0.1C71.5,44.4,71.4,44.5,71.4,44.6z"/>
	</g>
</g>
<path class="st0" d="M83.7,36.3c0.1,0,0.1,0,0.2,0c0.1,0.1,0.1,0.2,0.1,0.3c-2,2.8-4.7,4.9-7.8,6.2c-0.1,0.1-0.3,0-0.3-0.1
	c-0.1-0.1,0-0.3,0.1-0.3c3-1.3,5.7-3.4,7.6-6.1C83.6,36.4,83.6,36.3,83.7,36.3z"/>
<path class="st0" d="M81.1,37.2c0.1,0,0.2,0,0.2,0.1c0.1,0.1,0.1,0.2,0,0.3c-1.6,1.8-3.6,3.2-5.7,4.2c-0.1,0.1-0.3,0-0.3-0.1
	c-0.1-0.1,0-0.3,0.1-0.3c2.1-0.9,4-2.3,5.6-4.1C81,37.2,81.1,37.2,81.1,37.2z"/>
<path class="st0" d="M82.8,39.2c0.1,0,0.2,0,0.2,0.1c0.1,0.1,0.1,0.2,0,0.3c-1.7,1.8-3.8,3.3-6.1,4.3c-0.1,0.1-0.3,0-0.3-0.1
	c-0.1-0.1,0-0.3,0.1-0.3c2.2-1,4.2-2.4,5.9-4.2C82.7,39.3,82.7,39.2,82.8,39.2z"/>
<path class="st0" d="M3.9,35.9c1.9,2.7,4.6,4.8,7.6,6.1c0.1,0.1,0.2,0.2,0.1,0.3c-0.1,0.1-0.2,0.2-0.3,0.1c-3.1-1.3-5.8-3.5-7.8-6.2
	c-0.1-0.1-0.1-0.3,0.1-0.3c0.1,0,0.1-0.1,0.2,0C3.8,35.9,3.8,35.9,3.9,35.9z"/>
<path class="st0" d="M6.4,36.8c1.6,1.8,3.5,3.1,5.6,4.1c0.1,0.1,0.2,0.2,0.1,0.3c-0.1,0.1-0.2,0.2-0.3,0.1c-2.2-1-4.1-2.4-5.7-4.2
	C6,37,6,36.9,6.1,36.8c0.1-0.1,0.1-0.1,0.2-0.1C6.4,36.7,6.4,36.8,6.4,36.8z"/>
<path class="st0" d="M4.8,38.8c1.7,1.8,3.7,3.2,5.9,4.2c0.1,0.1,0.2,0.2,0.1,0.3c-0.1,0.1-0.2,0.2-0.3,0.1c-2.3-1-4.4-2.4-6.1-4.3
	c-0.1-0.1-0.1-0.2,0-0.3c0.1-0.1,0.1-0.1,0.2-0.1C4.7,38.8,4.7,38.8,4.8,38.8z"/>
</svg>
